<svg xmlns="http://www.w3.org/2000/svg" xmlns:xlink="http://www.w3.org/1999/xlink" x="0px" y="0px" viewBox="0 0 80 80" style="enable-background:new 0 0 80 80;" xml:space="preserve"><g>	<path d="M5,66.1c13.1-0.3,25.7-5.4,38.8-9C35,62.5,25.4,69.7,14.3,67.6c-1.2,0.1-4.9,0.6-2.5,1.3c22,6.9,41-23.3,65.2-17.5  c1.8,0.4,0.7-1.3-1-1.9c-6.7-2.4-15.5-2.2-21.3,1.6C38.2,53,20.1,63.5,5.4,65C4.7,65.1,3.9,66.2,5,66.1z"></path>	<path d="M15.7,55.7c0-0.2,0-0.3,0.1-0.5C10.3,56.1,5.1,56,3.4,53c-1-1.8-1.6-1-1.2,0.1c1.6,4.1,7,4.9,14.1,4c0,0-0.1,0-0.1-0.1  C15.9,56.8,15.6,56.3,15.7,55.7z"></path>	<path d="M69.4,43.5c-7.9-1.1-15.6,1.4-23.2,3c-1.2,0.1-1.9,0.7-2.5,1.3c-1.9,0.7-3.1,0.7-5.6,0.8c-1.2,0.1-1.9,0.7-2.5,1.3  c-1.9,0.7-3.7,0.2-5.6,0.8c-1.7,0.8-4.8,1.9-8.2,2.9c-1,0.5-1.9,1.1-2.7,2c-0.1,0.1-0.2,0.2-0.2,0.3c-0.2,0.3-0.5,0.6-0.9,0.9  C35,54.3,61.1,43.1,69.9,44.8C72.7,45.4,71.1,43.7,69.4,43.5z"></path>	<path d="M24.9,51.3c3-0.7,6.3-2.8,7.8-4.9c1.2-1.6,3.9-3.9,7.6-3c4.3,1.7,7.7-0.4,12-2.4c0.7-0.3,1.5-0.7,2.3-1  c2-0.8,5.7-1.6,8.5-1.3c0.1,0,0.1-0.2-0.1-0.3c-4.2-3.9-13.4-6.1-18.7-1.7l-1.8,2c-0.1,0.1-0.2,0.1-0.2,0c-0.1,0-0.1-0.1-0.1-0.2  c1.2-3.2,2.5-5.4,3.8-6.7c4.9-5.5,6.9-12.8,4.3-16.3c-0.2-0.1-0.4,0-0.8,0.2C47.7,17,43.3,20,42,24.2c-0.2,0.7-0.8,3.7-1,4.6  l-0.2,0.9c0,0.1-0.1,0.1-0.1,0.1c-0.1,0-0.1,0-0.2-0.1c-0.6-1-1.9-1.6-1.9-1.6c-0.1,0-0.1-0.1-0.1-0.2c-0.1-2.4-0.1-4.7-1.7-7.5  c-1.4-2.6-5.3-7.6-9-10.2c-0.4-0.3-0.6-0.4-0.9-0.2c-0.2,0.2-0.2,0.5-0.2,1c0.1,3,0.2,5.6,1,8.2c0.7,2.3,2.6,6.3,3.4,8.2  c0.2,0.4,0.3,0.7,0.4,0.9c0,0.1,0,0.2-0.1,0.2c-2.8,0.7-4.5,2.8-4.5,2.9c-0.1,0.1-0.1,0.1-0.2,0.1c-3.6-1.5-10.2-3.7-13.7-3.7  C13,28,13,28.4,13.1,28.7c2.8,7,11.2,12,19.6,12.2c0,0-10.5-0.6-15.7,14.7c-0.1,0.3,0.1,0.5,0.1,0.5c0,0,0.1,0,0.1,0  c0.3,0,0.6-0.4,0.9-0.7c0.1-0.2,0.3-0.3,0.4-0.5C20.3,52.8,22.6,52,24.9,51.3z M49.9,36.8c-2.5,0.6-4.8,2.2-7,4.4c-0.4,0.4-1,1-1,1  s0.4-1,0.8-1.6c1.2-1.8,2.9-3.1,4.7-3.7C48.7,36.6,49.9,36.8,49.9,36.8z M44.9,28.8c2.3-2.5,4.5-5.1,5.2-9.4  c0.1-0.4,0.3-1.9,0.3-1.9s0.4,1.4,0,3.4c-0.5,2.8-2.1,5.6-4.7,8.5c-2.9,3.4-4,5.8-4.4,9.1C41.1,39.4,41,41,41,41s-0.4-1-0.2-2.5  C41.2,33.8,43.1,30.9,44.9,28.8z M30.6,15.6c0,0,1.8,1.8,2.3,2.5c2.3,2.9,4.3,6.5,3.7,9.7l-0.6,0c0.3-3.3-1.5-6.3-3.2-9  C31.9,17.1,30.6,15.6,30.6,15.6z M29.1,33.9c0,0,0.1,0.6,0.6,1c0.4,0.3,0.9,0.6,1.3,0.4c0.3-0.1,0.5-0.3,0.7-0.6  c0.1-0.1,0.2-0.3,0.4-0.4c1-1.1,2.5-1.6,3.9-1.3c0.4,0.1,0.7,0.1,1,0c1.2-0.4,0.8-2.2,0.5-2.6c0,0,0.6,0.4,0.8,0.7  c0.2,0.3,0.4,0.7,0.3,1.1c-0.1,1-1,1.7-2,1.8c-0.3,0-1-0.1-1.3-0.1c-0.9,0-2,0.5-2.6,1.2c-0.4,0.4-1,1.1-1.8,1.1  C29.6,36.2,28.8,34.7,29.1,33.9z M31.6,38.9c-5.8-0.5-10.3-0.9-14.7-7c-0.2-0.3-0.9-1.3-0.9-1.3s0.6,0.5,1,1  c0.5,0.5,2.2,2.3,4.1,3.5c2.7,1.7,6.3,2.3,9.4,2.7c1.7,0.2,2.8,0.3,4.5,0.7c2.3,0.6,3.3,1.8,3.3,1.8s-1-0.7-2.9-1  C34.2,39.1,32.9,39,31.6,38.9z"></path></g></svg>