<svg xmlns="http://www.w3.org/2000/svg" xmlns:xlink="http://www.w3.org/1999/xlink" x="0px" y="0px" viewBox="0 0 80 80" style="enable-background:new 0 0 80 80;" xml:space="preserve"><path d="M26.7,39.3L23,20.3l-9.4,1.8c-2.6,0.5-4.8,2-6.1,4.1c-3,4.4-1.8,10.4,2.6,13.4c2,1.4,4.6,2,7.2,1.5L26.7,39.3z M34.2,38.2 l-4-20.5c0-0.3-0.3-0.6-0.5-0.7l0,0c-0.2-0.2-0.5-0.2-0.9-0.2l-3.5,0.7c-0.3,0.1-0.6,0.2-0.7,0.5l0,0c-0.2,0.2-0.2,0.5-0.2,0.9 l4,20.5c0.1,0.3,0.2,0.6,0.5,0.7l0,0c0.2,0.2,0.5,0.2,0.9,0.2l3.5-0.7c0.3-0.1,0.6-0.2,0.7-0.5l0,0C34.2,38.8,34.3,38.6,34.2,38.2 L34.2,38.2z M57.1,12l4.1,21.1l3-0.6c1.1-0.2,1.8-1.2,1.6-2.3l-3.4-17.2c-0.2-1.1-1.2-1.8-2.3-1.6L57.1,12z M53.9,5L32.1,18 l3.8,19.2l24.9,3.2L53.9,5z M69.4,14.4c-0.4,0.3-0.9,0.3-1.3-0.1c-0.3-0.4-0.3-0.9,0.1-1.3l2-1.7c0.4-0.3,0.9-0.3,1.3,0.1 c0.3,0.4,0.3,0.9-0.1,1.3L69.4,14.4z M71.4,28.9c-1.2-0.1-1-1.9,0.2-1.8l2.6,0.2c1.2,0.1,1,1.9-0.2,1.8L71.4,28.9z M70.5,21.9 c-1.2,0.2-1.4-1.6-0.3-1.8l2.6-0.4c1.2-0.2,1.5,1.6,0.3,1.8L70.5,21.9z M25.8,51.7c-2.1,0.4-4.3,0.8-5.8,1.1c-0.5,0.1-1-0.2-1.1-0.7 L18,47.6l-5.8,6.5c-0.3,0.3-0.5,0.3-0.8,0.4L15,73.2l4.2-0.8l0,0c0.1,0,0.1,0,0.2,0c4.2,0.2,11.8-1.2,15.6-3c2.2-1,0.8-3.7-0.4-3.4 c-0.1,0-0.1,0-0.2,0l0,0c-1.1,0-1.2-1.6-0.2-1.8c1.1-0.2,1.4-2.2,0.3-3.1c-0.5-0.4-0.8-0.3-1.1-0.3l0,0c-1.1,0-1.2-1.6-0.2-1.8 c1.1-0.2,1.4-2.2,0.3-3.1c-0.3-0.2-0.6-0.3-0.9-0.3l-0.3-1.8c1.1-0.2,1.4-2.2,0.3-3.1c-0.3-0.2-0.6-0.3-0.9-0.3L25.8,51.7z  M20.5,50.9l5.6-1l-1.6-8.3l-5.6,1.1L20.5,50.9z M9.2,54.2L5.3,55c-0.1,0-0.2,0.1-0.2,0.3l3.8,19.6c0,0.1,0.1,0.2,0.3,0.2l3.9-0.8 c0.1,0,0.2-0.1,0.2-0.3L9.5,54.6c0-0.1,0-0.2-0.1-0.3l0,0C9.3,54.2,9.3,54.2,9.2,54.2L9.2,54.2z"></path></svg>