<svg xmlns="http://www.w3.org/2000/svg" xmlns:xlink="http://www.w3.org/1999/xlink" x="0px" y="0px" viewBox="0 0 80 80" style="enable-background:new 0 0 80 80;" xml:space="preserve"><g>	<path d="M25.5,63c-0.8,0-1.7-0.1-2.5-0.4L20,72.1l5.2-1.9c0.5-0.1,1.2,0,1.5,0.4l3.2,4.4l4.8-15.9L29.2,62C28,62.6,26.7,63,25.5,63  z"></path>	<path d="M39.9,21.7c-7.4,0-13.5,6.1-13.5,13.5s6.1,13.5,13.5,13.5s13.5-6.1,13.5-13.5S47.3,21.7,39.9,21.7z M47.4,31.5l-9.1,9.1  C38,40.9,37.6,41,37.4,41c-0.4,0-0.7-0.1-0.9-0.4l-4.1-4.1c-0.5-0.5-0.5-1.3,0-1.9c0.5-0.5,1.3-0.5,1.9,0l3.2,3.2l8.2-8.2  c0.5-0.5,1.3-0.5,1.9,0C48,30.1,48,30.9,47.4,31.5z"></path>	<path d="M51,61.9l-5.8-3L50,75l3.3-4.5c0.4-0.5,0.9-0.7,1.6-0.4l5,2l-2.8-9.7C55,63,52.9,62.8,51,61.9z"></path>	<path d="M68.5,25.8c-0.7-2-2.1-3.3-4.1-3.6l-9.7-1.5c-2.4-0.3-4.6-1.9-5.7-4.1l-4.5-8.9C43.6,6.1,41.9,5,39.9,5  c-2,0-3.6,1.1-4.5,2.8l-4.2,8.7c-1.2,2.2-3.3,3.8-5.8,4.1l-9.7,1.7c-2,0.3-3.6,1.6-4.1,3.6c-0.7,1.9-0.1,3.8,1.3,5.2l7,6.7  c1.9,1.9,2.6,4.5,2.2,6.9l-1.6,9.7c-0.4,2.1,0.5,4.2,2.4,5.2c0,0,0.1,0,0.1,0.1c1.5,0.8,3.3,0.9,4.9,0.1l8.6-4.5  c2-1.1,4.5-1.1,6.6-0.3c0.1,0,0.4,0,0.5,0.1l8.6,4.5c1.5,0.8,3.2,0.8,4.6,0l0.1-0.1c1.9-1.2,2.9-3.2,2.5-5.3L58,44.6  c-0.4-2.4,0.4-5,2.2-6.9l7-6.7C68.6,29.5,69,27.6,68.5,25.8z M39.9,51.3c-8.9,0-16.1-7.3-16.1-16.1S31,19,39.9,19S56,26.3,56,35.2  S48.8,51.3,39.9,51.3z"></path></g></svg>