<svg xmlns="http://www.w3.org/2000/svg" xmlns:xlink="http://www.w3.org/1999/xlink" x="0px" y="0px" viewBox="0 0 80 80" style="enable-background:new 0 0 80 80;" xml:space="preserve"><g>	<path d="M12.7,70.8c0.3,1,1.2,1.7,2.2,1.7h50.4c1,0,1.9-0.7,2.2-1.7l1.1-4.1H11.5L12.7,70.8z"></path>	<path d="M9.7,57.4h60.5c1.3,0,2.3,1,2.3,2.3V62c0,1.3-1,2.3-2.3,2.3H9.7c-1.3,0-2.3-1-2.3-2.3v-2.3C7.4,58.4,8.5,57.4,9.7,57.4z"></path>	<path d="M60.6,35.6c-4.7-4.7-11.2-7.9-18.3-8.4v-4.8h1.2c0.6,0,1.2-0.5,1.2-1.2V19c0-0.6-0.5-1.2-1.2-1.2h-7  c-0.6,0-1.2,0.5-1.2,1.2v2.3c0,0.6,0.5,1.2,1.2,1.2h1.2v4.8C23.1,28.4,11.5,40.3,10.9,55h58.2C68.8,47.5,65.6,40.6,60.6,35.6z"></path>	<path d="M13.8,22.8c0.3,0.2,0.4,0.5,0.2,0.8L13,25.1c-0.3,0.5-0.2,1.3,0.4,1.6c0.2,0.1,0.4,0.2,0.6,0.2c0.4,0,0.8-0.2,1-0.5  l0.9-1.5c0.9-1.4,0.5-3.2-0.9-4c-0.3-0.2-0.4-0.5-0.2-0.8l0.9-1.5c0.3-0.5,0.2-1.3-0.4-1.6c-0.5-0.3-1.3-0.2-1.6,0.4l-0.9,1.5  C12,20.2,12.4,22,13.8,22.8L13.8,22.8z"></path>	<path d="M24.2,13.5c0.3,0.2,0.4,0.5,0.2,0.8l-0.9,1.5c-0.3,0.5-0.2,1.3,0.4,1.6c0.2,0.1,0.4,0.2,0.6,0.2c0.4,0,0.8-0.2,1-0.5  l0.9-1.5c0.9-1.4,0.5-3.2-0.9-4c-0.3-0.2-0.4-0.5-0.2-0.8l0.9-1.5c0.3-0.5,0.2-1.3-0.4-1.6c-0.5-0.3-1.3-0.2-1.6,0.4l-0.9,1.5  C22.5,10.9,22.9,12.7,24.2,13.5L24.2,13.5z"></path>	<path d="M65,22.8c0.3,0.2,0.4,0.5,0.2,0.8l-0.9,1.5c-0.3,0.5-0.2,1.3,0.4,1.6c0.2,0.1,0.4,0.2,0.6,0.2c0.4,0,0.8-0.2,1-0.5l0.9-1.5  c0.9-1.4,0.5-3.2-0.9-4c-0.3-0.2-0.4-0.5-0.2-0.8l0.9-1.5c0.3-0.5,0.2-1.3-0.4-1.6c-0.5-0.3-1.3-0.2-1.6,0.4l-0.9,1.5  C63.2,20.2,63.6,22,65,22.8L65,22.8z"></path>	<path d="M54.5,13.5c0.3,0.2,0.4,0.5,0.2,0.8l-0.9,1.5c-0.3,0.5-0.2,1.3,0.4,1.6c0.2,0.1,0.4,0.2,0.6,0.2c0.4,0,0.8-0.2,1-0.5  l0.9-1.5c0.9-1.4,0.5-3.2-0.9-4c-0.3-0.2-0.4-0.5-0.2-0.8l0.9-1.5c0.3-0.5,0.2-1.3-0.4-1.6c-0.5-0.3-1.3-0.2-1.6,0.4l-0.9,1.5  C52.8,10.9,53.2,12.7,54.5,13.5L54.5,13.5z"></path></g></svg>