<svg xmlns="http://www.w3.org/2000/svg" xmlns:xlink="http://www.w3.org/1999/xlink" x="0px" y="0px" viewBox="0 0 120 120" style="enable-background:new 0 0 120 120;" xml:space="preserve"><path d="M33.9,67.9c-3.4,0-6.2-2.8-6.2-6.2c0-17.1,13.9-31.1,31.1-31.1c3.4,0,6.2,2.8,6.2,6.2c0,3.4-2.8,6.2-6.2,6.2 c-10.3,0-18.6,8.4-18.6,18.6C40.1,65.1,37.3,67.9,33.9,67.9z"></path><path d="M59.9,119c-13.8,0-27.1-4.8-37.8-13.8C10,95.1,2.6,80.8,1.2,65.1c-1.4-15.7,3.4-31,13.6-43.1C24.9,10,39.2,2.6,54.9,1.2 c15.7-1.4,31,3.4,43.1,13.6c12.1,10.1,19.5,24.4,20.8,40.1c2.8,32.4-21.2,61.1-53.6,63.9l0,0C63.4,118.9,61.6,119,59.9,119z  M64.6,112.6L64.6,112.6L64.6,112.6z M60.1,13.4c-1.4,0-2.8,0.1-4.1,0.2c-25.6,2.2-44.6,24.9-42.3,50.5c1.1,12.4,6.9,23.6,16.5,31.6 c9.5,8,21.6,11.8,34,10.7l0,0c25.6-2.2,44.6-24.9,42.3-50.5c-1.1-12.4-6.9-23.6-16.5-31.6C81.5,17.2,71,13.4,60.1,13.4z"></path><path d="M108.4,117.6c-1.6,0-3.2-0.6-4.4-1.8l-12.4-12.4c-2.4-2.4-2.4-6.4,0-8.8s6.4-2.4,8.8,0l12.4,12.4c2.4,2.4,2.4,6.4,0,8.8 C111.6,117,110,117.6,108.4,117.6z"></path></svg>