<svg xmlns="http://www.w3.org/2000/svg" xmlns:xlink="http://www.w3.org/1999/xlink" x="0px" y="0px" viewBox="0 0 80 80" style="enable-background:new 0 0 80 80;" xml:space="preserve"><g>	<polygon points="58.8,70 58.8,63.5 21.2,63.5 21.2,70  "></polygon>	<path d="M25,34.7c3.8-1.5,4.6-4.3,6.3-2.6c4.9,4.7,12.6,4.7,17.4,0c2.3-2.2,3.5,3.9,11.7,3.5c10.8-0.6,16-14,8.2-21.9  C63.8,8.8,56,8.8,51,13.5c-2.3,2.2-3.3-3.5-11-3.5c-7.7,0-8.7,5.7-11,3.5c-8-7.7-21.4-2-21.4,9.3C7.6,32,16.8,38,25,34.7z"></path>	<path d="M30.1,35.5c-2.6,2-5.7,3.2-9,3.4v21.3h37.7V38.9c-3.3-0.2-6.4-1.4-9-3.4C44.1,40.1,35.9,40.1,30.1,35.5z"></path></g></svg>