<svg xmlns="http://www.w3.org/2000/svg" xmlns:xlink="http://www.w3.org/1999/xlink" x="0px" y="0px" viewBox="0 0 80 80" style="enable-background:new 0 0 80 80;" xml:space="preserve"><style type="text/css">	.st0{enable-background:new    ;}</style><g>	<g>		<g>			<path d="M56.1,33.9l3.7,12c-5.6,5.2-7.5,7.6-10,16.1l-11.6,0.1L33.9,52c1.5-0.7,4.6-3.1,5.2-4.1c-2.1-3.9-6.8-2.7-11.9-2.7    c-4.9,0-9.8,0-14.7,0c-2.2,3.2-3.4,6.3-2.9,11.4c1.3-0.7,6.8-9,15.8-4.5c4.5,2.3,7.1,8.6,10.5,12.8l17.2,0l0.5-2.3    c0.9-9.3,7.4-13.6,14.7-11.9c3.2,0.7,4.2,3,6.7,0.5c-3-5.9-8.9-6.1-10.3-6.9c-1.3-0.7-1.2-2-2-3.6c1.4-1.3,3.8-1.7,3.2-4.7    c-0.6-2.6-3.5-2.8-5.3-1.7l-1.1-1.7L56.1,33.9z M30.9,41.3l14.8,5.4c-1.8,13-5.3,15.3,2.7,13.6c0.6-2,3.3-12.9,3.1-14.9    c-0.3-3.9-7.5-5.9-11-7.2l1.2-8.7c1.5,0.7,0.7,0.1,1.9,1.3c1.8,1.5,2.7,3.7,6.1,3c1.3-0.3,8.1-2.8,9.1-3.7    c0.3-6.6-5.6-1.8-10.1-0.9c-2-2.4-6.3-8.3-9.5-8.9c-7-1.3-6.2,0.7-7.5,9.7C31.3,33.8,30.1,38,30.9,41.3z M4.6,27.3    c0,5.3-0.3,9.4,0.4,14.5c3,1,19.6,1.2,22.1-0.1c0.8-2.9,0.5-10.7,0.5-14.4c0-3-0.9-3.7-3.8-3.7H8.6C5.5,23.7,4.6,24.1,4.6,27.3z     M71.1,64c-2.2,7-13.6,4.5-11.2-3.5C62.1,53.4,73.4,56.9,71.1,64z M62.5,53c-12.8,4-6.5,23.1,6.2,18.8c4.1-1.4,8.1-6.6,6.1-12.6    C73.4,54.9,68.5,51.1,62.5,53z M18.7,56.8c7.6-2,10.2,9.5,2.9,11.3C14,69.9,11,58.8,18.7,56.8z M17.4,52.8    C4.9,56.4,9.9,75.3,22.7,72c4.5-1.2,8.3-6.2,7-12C28.8,55.4,23.2,51.1,17.4,52.8z M39.1,8.2c-6.7,3.5-1.4,12.5,4.6,9.5    C50,14.5,45.3,4.9,39.1,8.2z"></path>		</g>	</g>	<g class="st0">		<path d="M4.6,72.5L4.6,72.5C4.6,72.5,4.6,72.5,4.6,72.5C4.6,72.5,4.6,72.5,4.6,72.5C4.6,72.5,4.6,72.5,4.6,72.5   C4.6,72.5,4.6,72.5,4.6,72.5C4.6,72.5,4.6,72.5,4.6,72.5C4.6,72.5,4.6,72.5,4.6,72.5C4.6,72.5,4.6,72.5,4.6,72.5   C4.6,72.5,4.6,72.5,4.6,72.5L4.6,72.5C4.6,72.5,4.6,72.5,4.6,72.5C4.6,72.5,4.6,72.5,4.6,72.5C4.6,72.5,4.6,72.5,4.6,72.5   C4.6,72.5,4.6,72.5,4.6,72.5C4.6,72.5,4.6,72.5,4.6,72.5C4.6,72.5,4.6,72.5,4.6,72.5C4.6,72.5,4.6,72.5,4.6,72.5   C4.6,72.5,4.6,72.5,4.6,72.5z"></path>		<path d="M4.6,72.5L4.6,72.5L4.6,72.5L4.6,72.5L4.6,72.5C4.6,72.5,4.6,72.5,4.6,72.5C4.6,72.5,4.6,72.5,4.6,72.5   C4.6,72.5,4.6,72.5,4.6,72.5L4.6,72.5C4.6,72.5,4.6,72.5,4.6,72.5C4.6,72.5,4.6,72.5,4.6,72.5C4.6,72.5,4.6,72.5,4.6,72.5   C4.6,72.5,4.6,72.5,4.6,72.5L4.6,72.5z"></path>		<path d="M4.6,72.5L4.6,72.5C4.6,72.5,4.6,72.5,4.6,72.5C4.6,72.5,4.6,72.5,4.6,72.5C4.6,72.5,4.6,72.5,4.6,72.5   C4.6,72.5,4.6,72.5,4.6,72.5C4.6,72.5,4.6,72.5,4.6,72.5C4.6,72.5,4.6,72.5,4.6,72.5C4.6,72.5,4.6,72.5,4.6,72.5   C4.6,72.5,4.6,72.5,4.6,72.5L4.6,72.5C4.6,72.5,4.6,72.5,4.6,72.5C4.6,72.5,4.6,72.5,4.6,72.5C4.6,72.5,4.6,72.5,4.6,72.5   C4.6,72.5,4.6,72.5,4.6,72.5z M4.6,72.5C4.6,72.5,4.6,72.5,4.6,72.5C4.6,72.5,4.6,72.5,4.6,72.5C4.6,72.5,4.6,72.5,4.6,72.5   C4.6,72.5,4.6,72.5,4.6,72.5L4.6,72.5z"></path>		<path d="M4.6,72.5L4.6,72.5C4.6,72.5,4.6,72.5,4.6,72.5C4.6,72.5,4.6,72.5,4.6,72.5C4.6,72.5,4.6,72.5,4.6,72.5   C4.6,72.5,4.6,72.5,4.6,72.5C4.6,72.5,4.6,72.5,4.6,72.5L4.6,72.5C4.6,72.5,4.6,72.5,4.6,72.5C4.6,72.5,4.6,72.5,4.6,72.5   L4.6,72.5C4.6,72.5,4.6,72.5,4.6,72.5C4.6,72.5,4.6,72.5,4.6,72.5C4.6,72.5,4.6,72.5,4.6,72.5C4.6,72.5,4.6,72.5,4.6,72.5   C4.6,72.5,4.6,72.5,4.6,72.5C4.6,72.5,4.6,72.5,4.6,72.5C4.6,72.5,4.6,72.5,4.6,72.5C4.6,72.5,4.6,72.5,4.6,72.5   C4.6,72.5,4.6,72.5,4.6,72.5C4.6,72.5,4.6,72.5,4.6,72.5L4.6,72.5C4.6,72.5,4.6,72.5,4.6,72.5C4.6,72.5,4.6,72.5,4.6,72.5   C4.6,72.5,4.6,72.5,4.6,72.5C4.6,72.5,4.6,72.5,4.6,72.5z M4.6,72.5C4.6,72.5,4.6,72.5,4.6,72.5C4.6,72.5,4.6,72.5,4.6,72.5   C4.6,72.5,4.6,72.5,4.6,72.5C4.6,72.5,4.6,72.5,4.6,72.5C4.6,72.5,4.6,72.5,4.6,72.5C4.6,72.5,4.6,72.5,4.6,72.5   C4.6,72.5,4.6,72.5,4.6,72.5C4.6,72.5,4.6,72.5,4.6,72.5L4.6,72.5z"></path>		<path d="M4.6,72.5L4.6,72.5L4.6,72.5L4.6,72.5C4.6,72.5,4.6,72.5,4.6,72.5C4.6,72.5,4.6,72.5,4.6,72.5C4.6,72.5,4.6,72.5,4.6,72.5   C4.6,72.5,4.6,72.5,4.6,72.5L4.6,72.5C4.6,72.5,4.6,72.5,4.6,72.5C4.6,72.5,4.6,72.5,4.6,72.5C4.6,72.5,4.6,72.5,4.6,72.5   C4.6,72.5,4.6,72.5,4.6,72.5C4.6,72.5,4.6,72.5,4.6,72.5L4.6,72.5L4.6,72.5L4.6,72.5L4.6,72.5L4.6,72.5L4.6,72.5L4.6,72.5   L4.6,72.5z"></path>		<path d="M4.6,72.5L4.6,72.5C4.6,72.5,4.6,72.5,4.6,72.5C4.6,72.5,4.6,72.5,4.6,72.5C4.6,72.5,4.6,72.5,4.6,72.5   C4.6,72.5,4.6,72.5,4.6,72.5C4.6,72.5,4.6,72.5,4.6,72.5C4.6,72.5,4.6,72.5,4.6,72.5C4.6,72.5,4.6,72.5,4.6,72.5   C4.6,72.5,4.6,72.5,4.6,72.5L4.6,72.5C4.6,72.5,4.6,72.5,4.6,72.5C4.6,72.5,4.6,72.5,4.6,72.5C4.6,72.5,4.6,72.5,4.6,72.5   C4.6,72.5,4.6,72.5,4.6,72.5z M4.6,72.5C4.6,72.5,4.6,72.5,4.6,72.5C4.6,72.5,4.6,72.5,4.6,72.5C4.6,72.5,4.6,72.5,4.6,72.5   C4.6,72.5,4.6,72.5,4.6,72.5L4.6,72.5z"></path>		<path d="M4.7,72.5L4.7,72.5L4.7,72.5C4.7,72.5,4.7,72.5,4.7,72.5C4.7,72.5,4.7,72.5,4.7,72.5C4.6,72.5,4.6,72.5,4.7,72.5   C4.6,72.5,4.6,72.5,4.7,72.5C4.6,72.5,4.6,72.5,4.7,72.5C4.6,72.5,4.6,72.5,4.7,72.5C4.7,72.5,4.7,72.5,4.7,72.5L4.7,72.5   L4.7,72.5L4.7,72.5z M4.6,72.5C4.6,72.5,4.6,72.5,4.6,72.5C4.6,72.5,4.6,72.5,4.6,72.5C4.7,72.5,4.7,72.5,4.6,72.5   C4.7,72.5,4.7,72.5,4.6,72.5C4.7,72.5,4.7,72.5,4.6,72.5C4.7,72.5,4.7,72.5,4.6,72.5C4.6,72.5,4.6,72.5,4.6,72.5   C4.6,72.5,4.6,72.5,4.6,72.5z"></path>		<path d="M4.7,72.5L4.7,72.5L4.7,72.5L4.7,72.5C4.7,72.5,4.7,72.5,4.7,72.5C4.7,72.5,4.7,72.5,4.7,72.5C4.7,72.5,4.7,72.5,4.7,72.5   C4.7,72.5,4.7,72.5,4.7,72.5C4.7,72.5,4.7,72.5,4.7,72.5C4.7,72.5,4.7,72.5,4.7,72.5C4.7,72.5,4.7,72.5,4.7,72.5L4.7,72.5   L4.7,72.5z M4.7,72.5C4.7,72.5,4.7,72.5,4.7,72.5C4.7,72.5,4.7,72.5,4.7,72.5C4.7,72.5,4.7,72.5,4.7,72.5   C4.7,72.5,4.7,72.5,4.7,72.5C4.7,72.5,4.7,72.5,4.7,72.5C4.7,72.5,4.7,72.5,4.7,72.5C4.7,72.5,4.7,72.5,4.7,72.5   C4.7,72.5,4.7,72.5,4.7,72.5z"></path>		<path d="M4.7,72.5L4.7,72.5L4.7,72.5L4.7,72.5L4.7,72.5L4.7,72.5L4.7,72.5C4.7,72.5,4.7,72.5,4.7,72.5C4.7,72.5,4.7,72.5,4.7,72.5   C4.7,72.5,4.7,72.5,4.7,72.5C4.7,72.5,4.7,72.5,4.7,72.5C4.7,72.5,4.7,72.5,4.7,72.5L4.7,72.5C4.7,72.5,4.7,72.5,4.7,72.5   C4.7,72.5,4.7,72.5,4.7,72.5C4.7,72.5,4.7,72.5,4.7,72.5L4.7,72.5z"></path>		<path d="M4.7,72.5L4.7,72.5L4.7,72.5C4.7,72.5,4.7,72.5,4.7,72.5C4.7,72.5,4.7,72.5,4.7,72.5C4.7,72.5,4.7,72.5,4.7,72.5   C4.7,72.5,4.7,72.5,4.7,72.5C4.7,72.5,4.7,72.5,4.7,72.5L4.7,72.5C4.7,72.5,4.7,72.5,4.7,72.5C4.7,72.5,4.7,72.5,4.7,72.5   C4.7,72.5,4.7,72.5,4.7,72.5C4.7,72.5,4.7,72.5,4.7,72.5L4.7,72.5z"></path>		<path d="M4.7,72.5L4.7,72.5C4.7,72.5,4.7,72.5,4.7,72.5C4.7,72.5,4.7,72.5,4.7,72.5C4.7,72.5,4.7,72.5,4.7,72.5   C4.7,72.5,4.7,72.5,4.7,72.5C4.7,72.5,4.7,72.5,4.7,72.5C4.7,72.5,4.7,72.5,4.7,72.5C4.7,72.5,4.7,72.5,4.7,72.5   C4.7,72.5,4.7,72.5,4.7,72.5L4.7,72.5C4.7,72.5,4.7,72.5,4.7,72.5C4.7,72.5,4.7,72.5,4.7,72.5C4.7,72.5,4.7,72.5,4.7,72.5   C4.7,72.5,4.7,72.5,4.7,72.5z M4.7,72.5C4.7,72.5,4.7,72.5,4.7,72.5C4.7,72.5,4.7,72.5,4.7,72.5C4.7,72.5,4.7,72.5,4.7,72.5   C4.7,72.5,4.7,72.5,4.7,72.5L4.7,72.5z"></path>		<path d="M4.7,72.5L4.7,72.5L4.7,72.5C4.7,72.5,4.7,72.5,4.7,72.5C4.7,72.5,4.7,72.5,4.7,72.5C4.7,72.5,4.7,72.5,4.7,72.5   C4.7,72.5,4.7,72.5,4.7,72.5C4.7,72.5,4.7,72.5,4.7,72.5C4.7,72.5,4.7,72.5,4.7,72.5L4.7,72.5L4.7,72.5L4.7,72.5L4.7,72.5   L4.7,72.5C4.7,72.5,4.7,72.5,4.7,72.5C4.7,72.5,4.7,72.5,4.7,72.5C4.7,72.5,4.7,72.5,4.7,72.5C4.7,72.5,4.7,72.5,4.7,72.5   C4.7,72.5,4.7,72.5,4.7,72.5L4.7,72.5z"></path>		<path d="M4.7,72.5L4.7,72.5L4.7,72.5L4.7,72.5L4.7,72.5z M4.7,72.5L4.7,72.5L4.7,72.5L4.7,72.5L4.7,72.5z"></path>		<path d="M4.7,72.5L4.7,72.5C4.7,72.5,4.7,72.5,4.7,72.5C4.7,72.5,4.7,72.5,4.7,72.5C4.7,72.5,4.7,72.5,4.7,72.5   C4.7,72.5,4.7,72.5,4.7,72.5C4.7,72.5,4.7,72.5,4.7,72.5C4.7,72.5,4.7,72.5,4.7,72.5C4.7,72.5,4.7,72.5,4.7,72.5   C4.7,72.5,4.7,72.5,4.7,72.5L4.7,72.5C4.7,72.5,4.7,72.5,4.7,72.5C4.7,72.5,4.7,72.5,4.7,72.5C4.7,72.5,4.7,72.5,4.7,72.5   C4.7,72.5,4.7,72.5,4.7,72.5z M4.7,72.5C4.7,72.5,4.7,72.5,4.7,72.5C4.7,72.5,4.7,72.5,4.7,72.5C4.7,72.5,4.7,72.5,4.7,72.5   C4.7,72.5,4.7,72.5,4.7,72.5L4.7,72.5z"></path>		<path d="M4.7,72.5L4.7,72.5L4.7,72.5L4.7,72.5L4.7,72.5L4.7,72.5L4.7,72.5L4.7,72.5L4.7,72.5z"></path>		<path d="M4.8,72.5C4.8,72.5,4.8,72.5,4.8,72.5C4.8,72.5,4.8,72.5,4.8,72.5C4.8,72.5,4.8,72.5,4.8,72.5C4.8,72.5,4.8,72.5,4.8,72.5   C4.8,72.5,4.8,72.5,4.8,72.5C4.8,72.5,4.8,72.5,4.8,72.5C4.8,72.5,4.8,72.5,4.8,72.5C4.8,72.5,4.8,72.5,4.8,72.5   C4.8,72.5,4.8,72.5,4.8,72.5C4.8,72.5,4.8,72.5,4.8,72.5z M4.8,72.5C4.8,72.5,4.8,72.5,4.8,72.5C4.8,72.5,4.8,72.5,4.8,72.5   C4.8,72.5,4.8,72.5,4.8,72.5C4.8,72.5,4.8,72.5,4.8,72.5C4.8,72.5,4.8,72.5,4.8,72.5C4.8,72.5,4.8,72.5,4.8,72.5   C4.8,72.5,4.8,72.5,4.8,72.5C4.8,72.5,4.8,72.5,4.8,72.5z"></path>		<path d="M4.8,72.5L4.8,72.5L4.8,72.5C4.8,72.5,4.8,72.5,4.8,72.5C4.8,72.5,4.8,72.5,4.8,72.5C4.8,72.5,4.8,72.5,4.8,72.5   C4.8,72.5,4.8,72.5,4.8,72.5C4.8,72.5,4.8,72.5,4.8,72.5C4.8,72.5,4.8,72.5,4.8,72.5C4.8,72.5,4.8,72.5,4.8,72.5   C4.8,72.5,4.8,72.5,4.8,72.5L4.8,72.5L4.8,72.5L4.8,72.5C4.8,72.5,4.8,72.5,4.8,72.5C4.8,72.5,4.8,72.5,4.8,72.5   C4.8,72.5,4.8,72.5,4.8,72.5C4.8,72.5,4.8,72.5,4.8,72.5C4.8,72.5,4.8,72.5,4.8,72.5L4.8,72.5L4.8,72.5L4.8,72.5   C4.8,72.5,4.8,72.5,4.8,72.5C4.8,72.5,4.8,72.5,4.8,72.5C4.8,72.5,4.8,72.5,4.8,72.5C4.8,72.5,4.8,72.5,4.8,72.5   C4.8,72.5,4.8,72.5,4.8,72.5C4.8,72.5,4.8,72.5,4.8,72.5L4.8,72.5L4.8,72.5L4.8,72.5z"></path>		<path d="M4.8,72.5L4.8,72.5L4.8,72.5L4.8,72.5C4.8,72.5,4.8,72.5,4.8,72.5C4.8,72.5,4.8,72.5,4.8,72.5C4.8,72.5,4.8,72.5,4.8,72.5   C4.8,72.5,4.8,72.5,4.8,72.5C4.8,72.5,4.8,72.5,4.8,72.5C4.8,72.5,4.8,72.5,4.8,72.5C4.8,72.5,4.8,72.5,4.8,72.5L4.8,72.5   L4.8,72.5z M4.8,72.5C4.8,72.5,4.8,72.5,4.8,72.5C4.8,72.5,4.8,72.5,4.8,72.5C4.8,72.5,4.8,72.5,4.8,72.5   C4.8,72.5,4.8,72.5,4.8,72.5C4.8,72.5,4.8,72.5,4.8,72.5C4.8,72.5,4.8,72.5,4.8,72.5C4.8,72.5,4.8,72.5,4.8,72.5   C4.8,72.5,4.8,72.5,4.8,72.5z"></path>		<path d="M4.8,72.5C4.8,72.5,4.8,72.5,4.8,72.5C4.8,72.5,4.8,72.5,4.8,72.5C4.8,72.5,4.8,72.5,4.8,72.5C4.8,72.5,4.8,72.5,4.8,72.5   C4.8,72.5,4.8,72.5,4.8,72.5C4.8,72.5,4.8,72.5,4.8,72.5C4.8,72.5,4.8,72.5,4.8,72.5C4.8,72.5,4.8,72.5,4.8,72.5   C4.8,72.5,4.8,72.5,4.8,72.5C4.8,72.5,4.8,72.5,4.8,72.5z M4.8,72.5C4.8,72.5,4.8,72.5,4.8,72.5C4.8,72.5,4.8,72.5,4.8,72.5   C4.8,72.5,4.8,72.5,4.8,72.5C4.8,72.5,4.8,72.5,4.8,72.5C4.8,72.5,4.8,72.5,4.8,72.5C4.8,72.5,4.8,72.5,4.8,72.5   C4.8,72.5,4.8,72.5,4.8,72.5C4.8,72.5,4.8,72.5,4.8,72.5z"></path>		<path d="M4.8,72.5L4.8,72.5C4.8,72.5,4.8,72.5,4.8,72.5C4.8,72.5,4.8,72.5,4.8,72.5C4.8,72.5,4.8,72.5,4.8,72.5   C4.8,72.5,4.8,72.5,4.8,72.5C4.8,72.5,4.8,72.5,4.8,72.5C4.8,72.5,4.8,72.5,4.8,72.5C4.8,72.5,4.8,72.5,4.8,72.5   C4.8,72.5,4.8,72.5,4.8,72.5L4.8,72.5C4.8,72.5,4.8,72.5,4.8,72.5C4.8,72.5,4.8,72.5,4.8,72.5C4.8,72.5,4.8,72.5,4.8,72.5   C4.8,72.5,4.8,72.5,4.8,72.5C4.8,72.5,4.8,72.5,4.8,72.5C4.8,72.5,4.8,72.5,4.8,72.5C4.8,72.5,4.8,72.5,4.8,72.5   C4.8,72.5,4.8,72.5,4.8,72.5z"></path>	</g>	<g class="st0">		<path d="M4.6,72.5L4.6,72.5L4.6,72.5C4.6,72.5,4.6,72.5,4.6,72.5C4.6,72.5,4.6,72.5,4.6,72.5C4.6,72.5,4.6,72.5,4.6,72.5   C4.6,72.5,4.6,72.5,4.6,72.5L4.6,72.5C4.6,72.5,4.6,72.5,4.6,72.5C4.6,72.5,4.6,72.5,4.6,72.5C4.6,72.5,4.6,72.5,4.6,72.5   L4.6,72.5L4.6,72.5L4.6,72.5L4.6,72.5L4.6,72.5L4.6,72.5L4.6,72.5L4.6,72.5L4.6,72.5z"></path>		<path d="M4.6,72.5L4.6,72.5L4.6,72.5L4.6,72.5L4.6,72.5C4.6,72.5,4.6,72.5,4.6,72.5C4.6,72.5,4.6,72.5,4.6,72.5   C4.6,72.5,4.6,72.5,4.6,72.5L4.6,72.5C4.6,72.5,4.6,72.5,4.6,72.5C4.6,72.5,4.6,72.5,4.6,72.5C4.6,72.5,4.6,72.5,4.6,72.5   C4.6,72.5,4.6,72.5,4.6,72.5L4.6,72.5z"></path>		<path d="M4.6,72.5C4.6,72.5,4.6,72.5,4.6,72.5C4.6,72.5,4.6,72.5,4.6,72.5C4.6,72.5,4.6,72.5,4.6,72.5C4.6,72.5,4.6,72.5,4.6,72.5   C4.6,72.5,4.6,72.5,4.6,72.5C4.6,72.5,4.6,72.5,4.6,72.5C4.6,72.5,4.6,72.5,4.6,72.5C4.6,72.5,4.6,72.5,4.6,72.5   C4.6,72.5,4.6,72.5,4.6,72.5C4.6,72.5,4.6,72.5,4.6,72.5z M4.6,72.5C4.6,72.5,4.6,72.5,4.6,72.5C4.6,72.5,4.6,72.5,4.6,72.5   C4.6,72.5,4.6,72.5,4.6,72.5C4.6,72.5,4.6,72.5,4.6,72.5C4.6,72.5,4.6,72.5,4.6,72.5C4.6,72.5,4.6,72.5,4.6,72.5   C4.6,72.5,4.6,72.5,4.6,72.5C4.6,72.5,4.6,72.5,4.6,72.5z"></path>		<path d="M4.6,72.5L4.6,72.5L4.6,72.5C4.6,72.5,4.6,72.5,4.6,72.5C4.6,72.5,4.6,72.5,4.6,72.5C4.6,72.5,4.6,72.5,4.6,72.5   C4.6,72.5,4.6,72.5,4.6,72.5C4.6,72.5,4.6,72.5,4.6,72.5C4.6,72.5,4.6,72.5,4.6,72.5C4.6,72.5,4.6,72.5,4.6,72.5   C4.6,72.5,4.6,72.5,4.6,72.5L4.6,72.5L4.6,72.5L4.6,72.5C4.6,72.5,4.6,72.5,4.6,72.5C4.6,72.5,4.6,72.5,4.6,72.5   C4.6,72.5,4.6,72.5,4.6,72.5C4.6,72.5,4.6,72.5,4.6,72.5C4.6,72.5,4.6,72.5,4.6,72.5L4.6,72.5L4.6,72.5L4.6,72.5   C4.6,72.5,4.6,72.5,4.6,72.5C4.6,72.5,4.6,72.5,4.6,72.5C4.6,72.5,4.6,72.5,4.6,72.5C4.6,72.5,4.6,72.5,4.6,72.5   C4.6,72.5,4.6,72.5,4.6,72.5C4.6,72.5,4.6,72.5,4.6,72.5L4.6,72.5L4.6,72.5L4.6,72.5z"></path>		<path d="M4.6,72.5L4.6,72.5L4.6,72.5L4.6,72.5C4.6,72.5,4.6,72.5,4.6,72.5C4.6,72.5,4.6,72.5,4.6,72.5C4.6,72.5,4.6,72.5,4.6,72.5   C4.6,72.5,4.6,72.5,4.6,72.5L4.6,72.5C4.6,72.5,4.6,72.5,4.6,72.5C4.6,72.5,4.6,72.5,4.6,72.5C4.6,72.5,4.6,72.5,4.6,72.5   C4.6,72.5,4.6,72.5,4.6,72.5C4.6,72.5,4.6,72.5,4.6,72.5L4.6,72.5L4.6,72.5L4.6,72.5L4.6,72.5L4.6,72.5L4.6,72.5L4.6,72.5   L4.6,72.5z"></path>		<path d="M4.6,72.5L4.6,72.5C4.6,72.5,4.6,72.5,4.6,72.5C4.6,72.5,4.6,72.5,4.6,72.5C4.6,72.5,4.6,72.5,4.6,72.5   C4.6,72.5,4.6,72.5,4.6,72.5C4.6,72.5,4.6,72.5,4.6,72.5L4.6,72.5L4.6,72.5L4.6,72.5C4.6,72.5,4.6,72.5,4.6,72.5   C4.6,72.5,4.6,72.5,4.6,72.5C4.6,72.5,4.6,72.5,4.6,72.5C4.6,72.5,4.6,72.5,4.6,72.5C4.6,72.5,4.6,72.5,4.6,72.5   C4.6,72.5,4.6,72.5,4.6,72.5L4.6,72.5L4.6,72.5L4.6,72.5L4.6,72.5z"></path>		<path d="M4.7,72.5L4.7,72.5C4.7,72.5,4.7,72.5,4.7,72.5C4.7,72.5,4.7,72.5,4.7,72.5C4.7,72.5,4.7,72.5,4.7,72.5   C4.7,72.5,4.7,72.5,4.7,72.5C4.7,72.5,4.7,72.5,4.7,72.5C4.7,72.5,4.7,72.5,4.7,72.5C4.7,72.5,4.7,72.5,4.7,72.5   C4.7,72.5,4.7,72.5,4.7,72.5L4.7,72.5C4.7,72.5,4.7,72.5,4.7,72.5C4.7,72.5,4.7,72.5,4.7,72.5C4.7,72.5,4.7,72.5,4.7,72.5   C4.7,72.5,4.7,72.5,4.7,72.5z M4.7,72.5C4.7,72.5,4.7,72.5,4.7,72.5C4.7,72.5,4.7,72.5,4.7,72.5C4.7,72.5,4.7,72.5,4.7,72.5   C4.7,72.5,4.7,72.5,4.7,72.5L4.7,72.5z"></path>		<path d="M4.7,72.5L4.7,72.5L4.7,72.5L4.7,72.5L4.7,72.5L4.7,72.5L4.7,72.5L4.7,72.5L4.7,72.5L4.7,72.5L4.7,72.5z"></path>		<path d="M4.7,72.5C4.7,72.5,4.7,72.5,4.7,72.5C4.7,72.5,4.7,72.5,4.7,72.5C4.7,72.5,4.7,72.5,4.7,72.5C4.7,72.5,4.7,72.5,4.7,72.5   C4.7,72.5,4.7,72.5,4.7,72.5C4.7,72.5,4.7,72.5,4.7,72.5C4.7,72.5,4.7,72.5,4.7,72.5C4.7,72.5,4.7,72.5,4.7,72.5   C4.7,72.5,4.7,72.5,4.7,72.5C4.7,72.5,4.7,72.5,4.7,72.5z M4.7,72.5C4.7,72.5,4.7,72.5,4.7,72.5C4.7,72.5,4.7,72.5,4.7,72.5   C4.7,72.5,4.7,72.5,4.7,72.5C4.7,72.5,4.7,72.5,4.7,72.5C4.7,72.5,4.7,72.5,4.7,72.5C4.7,72.5,4.7,72.5,4.7,72.5   C4.7,72.5,4.7,72.5,4.7,72.5C4.7,72.5,4.7,72.5,4.7,72.5z"></path>		<path d="M4.7,72.5L4.7,72.5C4.7,72.5,4.7,72.5,4.7,72.5C4.7,72.5,4.7,72.5,4.7,72.5C4.7,72.5,4.7,72.5,4.7,72.5   C4.7,72.5,4.7,72.5,4.7,72.5C4.7,72.5,4.7,72.5,4.7,72.5L4.7,72.5L4.7,72.5L4.7,72.5C4.7,72.5,4.7,72.5,4.7,72.5   C4.7,72.5,4.7,72.5,4.7,72.5C4.7,72.5,4.7,72.5,4.7,72.5C4.7,72.5,4.7,72.5,4.7,72.5C4.7,72.5,4.7,72.5,4.7,72.5   C4.7,72.5,4.7,72.5,4.7,72.5L4.7,72.5L4.7,72.5L4.7,72.5L4.7,72.5z"></path>		<path d="M4.7,72.5L4.7,72.5L4.7,72.5C4.7,72.5,4.7,72.5,4.7,72.5C4.7,72.5,4.7,72.5,4.7,72.5C4.7,72.5,4.7,72.5,4.7,72.5   C4.7,72.5,4.7,72.5,4.7,72.5C4.7,72.5,4.7,72.5,4.7,72.5C4.7,72.5,4.7,72.5,4.7,72.5L4.7,72.5L4.7,72.5L4.7,72.5L4.7,72.5   L4.7,72.5C4.7,72.5,4.7,72.5,4.7,72.5C4.7,72.5,4.7,72.5,4.7,72.5C4.7,72.5,4.7,72.5,4.7,72.5C4.7,72.5,4.7,72.5,4.7,72.5   C4.7,72.5,4.7,72.5,4.7,72.5L4.7,72.5z"></path>		<path d="M4.7,72.5L4.7,72.5L4.7,72.5C4.7,72.5,4.7,72.5,4.7,72.5C4.7,72.5,4.7,72.5,4.7,72.5C4.7,72.5,4.7,72.5,4.7,72.5   C4.7,72.5,4.7,72.5,4.7,72.5C4.7,72.5,4.7,72.5,4.7,72.5C4.7,72.5,4.7,72.5,4.7,72.5C4.7,72.5,4.7,72.5,4.7,72.5L4.7,72.5   L4.7,72.5L4.7,72.5z M4.7,72.5L4.7,72.5L4.7,72.5C4.7,72.5,4.7,72.5,4.7,72.5C4.7,72.5,4.7,72.5,4.7,72.5   C4.7,72.5,4.7,72.5,4.7,72.5C4.7,72.5,4.7,72.5,4.7,72.5C4.7,72.5,4.7,72.5,4.7,72.5C4.7,72.5,4.7,72.5,4.7,72.5L4.7,72.5z"></path>		<path d="M4.7,72.5L4.7,72.5L4.7,72.5L4.7,72.5L4.7,72.5C4.7,72.5,4.7,72.5,4.7,72.5C4.7,72.5,4.7,72.5,4.7,72.5   C4.7,72.5,4.7,72.5,4.7,72.5L4.7,72.5C4.7,72.5,4.7,72.5,4.7,72.5C4.7,72.5,4.7,72.5,4.7,72.5C4.7,72.5,4.7,72.5,4.7,72.5   C4.7,72.5,4.7,72.5,4.7,72.5L4.7,72.5z"></path>		<path d="M4.7,72.5C4.7,72.5,4.7,72.5,4.7,72.5C4.7,72.5,4.7,72.5,4.7,72.5C4.7,72.5,4.7,72.5,4.7,72.5C4.7,72.5,4.7,72.5,4.7,72.5   C4.8,72.5,4.8,72.5,4.7,72.5C4.8,72.5,4.8,72.5,4.7,72.5C4.7,72.5,4.7,72.5,4.7,72.5C4.7,72.5,4.7,72.5,4.7,72.5   C4.7,72.5,4.7,72.5,4.7,72.5C4.7,72.5,4.7,72.5,4.7,72.5z M4.7,72.5C4.7,72.5,4.7,72.5,4.7,72.5C4.7,72.5,4.7,72.5,4.7,72.5   C4.7,72.5,4.7,72.5,4.7,72.5C4.7,72.5,4.7,72.5,4.7,72.5C4.7,72.5,4.7,72.5,4.7,72.5C4.7,72.5,4.7,72.5,4.7,72.5   C4.7,72.5,4.7,72.5,4.7,72.5C4.7,72.5,4.7,72.5,4.7,72.5z"></path>		<path d="M4.8,72.5L4.8,72.5C4.8,72.5,4.8,72.5,4.8,72.5C4.8,72.5,4.8,72.5,4.8,72.5C4.8,72.5,4.8,72.5,4.8,72.5   C4.8,72.5,4.8,72.5,4.8,72.5C4.8,72.5,4.8,72.5,4.8,72.5L4.8,72.5C4.8,72.5,4.8,72.5,4.8,72.5C4.8,72.5,4.8,72.5,4.8,72.5   C4.8,72.5,4.8,72.5,4.8,72.5C4.8,72.5,4.8,72.5,4.8,72.5C4.8,72.5,4.8,72.5,4.8,72.5L4.8,72.5L4.8,72.5z M4.8,72.5L4.8,72.5   L4.8,72.5L4.8,72.5L4.8,72.5z"></path>		<path d="M4.8,72.5L4.8,72.5C4.8,72.5,4.8,72.5,4.8,72.5C4.8,72.5,4.8,72.5,4.8,72.5C4.8,72.5,4.8,72.5,4.8,72.5   C4.8,72.5,4.8,72.5,4.8,72.5C4.8,72.5,4.8,72.5,4.8,72.5C4.8,72.5,4.8,72.5,4.8,72.5C4.8,72.5,4.8,72.5,4.8,72.5   C4.8,72.5,4.8,72.5,4.8,72.5L4.8,72.5C4.8,72.5,4.8,72.5,4.8,72.5C4.8,72.5,4.8,72.5,4.8,72.5C4.8,72.5,4.8,72.5,4.8,72.5   C4.8,72.5,4.8,72.5,4.8,72.5z M4.8,72.5C4.8,72.5,4.8,72.5,4.8,72.5C4.8,72.5,4.8,72.5,4.8,72.5C4.8,72.5,4.8,72.5,4.8,72.5   C4.8,72.5,4.8,72.5,4.8,72.5L4.8,72.5z"></path>		<path d="M4.8,72.5L4.8,72.5C4.8,72.5,4.8,72.5,4.8,72.5C4.8,72.5,4.8,72.5,4.8,72.5C4.8,72.5,4.8,72.5,4.8,72.5   C4.8,72.5,4.8,72.5,4.8,72.5C4.8,72.5,4.8,72.5,4.8,72.5C4.8,72.5,4.8,72.5,4.8,72.5C4.8,72.5,4.8,72.5,4.8,72.5   C4.8,72.5,4.8,72.5,4.8,72.5L4.8,72.5C4.8,72.5,4.8,72.5,4.8,72.5C4.8,72.5,4.8,72.5,4.8,72.5C4.8,72.5,4.8,72.5,4.8,72.5   C4.8,72.5,4.8,72.5,4.8,72.5C4.8,72.5,4.8,72.5,4.8,72.5C4.8,72.5,4.8,72.5,4.8,72.5C4.8,72.5,4.8,72.5,4.8,72.5   C4.8,72.5,4.8,72.5,4.8,72.5z"></path>		<path d="M4.8,72.5L4.8,72.5L4.8,72.5L4.8,72.5C4.8,72.5,4.8,72.5,4.8,72.5C4.8,72.5,4.8,72.5,4.8,72.5C4.8,72.5,4.8,72.5,4.8,72.5   C4.8,72.5,4.8,72.5,4.8,72.5L4.8,72.5C4.8,72.5,4.8,72.5,4.8,72.5C4.8,72.5,4.8,72.5,4.8,72.5C4.8,72.5,4.8,72.5,4.8,72.5   C4.8,72.5,4.8,72.5,4.8,72.5C4.8,72.5,4.8,72.5,4.8,72.5L4.8,72.5L4.8,72.5L4.8,72.5L4.8,72.5L4.8,72.5L4.8,72.5L4.8,72.5   L4.8,72.5z"></path>	</g></g></svg>