<svg xmlns="http://www.w3.org/2000/svg" x="0px" y="0px" viewBox="0 0 40 40" style="enable-background:new 0 0 40 40;" xml:space="preserve"><g>	<path d="M15.5,18.4C15.5,18.4,15.5,18.4,15.5,18.4L15.5,18.4C15.5,18.4,15.5,18.4,15.5,18.4C15.5,18.4,15.5,18.4,15.5,18.4l1.5,1.4  c1.7,1.6,4.3,1.6,6,0l1.4-1.3l0.2-0.2L37.3,6.7c0.1-0.1,0-0.2-0.1-0.2H2.8c-0.1,0-0.2,0.2-0.1,0.2L15.5,18.4  C15.5,18.4,15.5,18.4,15.5,18.4C15.5,18.4,15.5,18.4,15.5,18.4C15.5,18.4,15.5,18.4,15.5,18.4z"></path>	<path d="M0.7,8.7c-0.1-0.1-0.2,0-0.2,0.1v22.4c0,0.1,0.1,0.2,0.2,0.1l7.7-7.9c2.2-2.2,2.1-5.8-0.2-7.9L0.7,8.7z"></path>	<path d="M20.8,24.7C20.8,24.7,20.8,24.7,20.8,24.7C20.6,24.9,20.3,25,20,25c-0.3,0-0.6-0.1-0.8-0.3l-3-2.8  c-0.8-0.8-2.1-0.7-2.8,0.1L2.7,33.3c-0.1,0.1,0,0.2,0.1,0.2h34.4c0.1,0,0.2-0.2,0.1-0.2L26.6,22c-0.8-0.8-2-0.8-2.8-0.1L20.8,24.7  C20.8,24.7,20.8,24.7,20.8,24.7z"></path>	<path d="M39.5,8.5C39.5,8.5,39.5,8.5,39.5,8.5l-8.5,7.7c-1.9,1.7-2,4.6-0.2,6.4l8.5,8.7c0.1,0.1,0.2,0,0.2-0.1V8.8  C39.5,8.7,39.5,8.6,39.5,8.5C39.5,8.5,39.5,8.5,39.5,8.5z"></path></g></svg>