<svg xmlns="http://www.w3.org/2000/svg" xmlns:xlink="http://www.w3.org/1999/xlink" x="0px" y="0px" viewBox="0 0 80 80" style="enable-background:new 0 0 80 80;" xml:space="preserve"><g>	<path d="M73.1,10c-0.1-2-2.6-3-4.1-1.5C56.9,20.7,38.3,20.4,37.1,33.4c-0.3,2.9,0.8,5.6,2.6,8c8.9-8.9,18.3-11.9,18.8-12.1  c0.1-0.1,0.2-0.1,0.3-0.1c-2.4,1.4-16.8,10.2-23.1,26.3c-3.3-5-8.4-11.3-12.6-14.7c-2.9-2.6-5.2-4.3-5.9-4.7c0.1,0,0.1,0,0.2,0.1  c0.3,0.1,7.6,1.9,13.9,8.5c1.3-1.7,1.5-2.9,1.4-4.9c-0.7-9.4-14.3-9.5-22.8-18.6c-1-1.1-2.9-0.4-3,1c-0.6,8.5,0.2,22.9,6.2,27  c3.3,2.4,8.5,2,12.5,0.2c3.5,4,6.8,8.7,8.3,11.7c-0.7,2.9-1.1,5.9-1.2,9.2c0,1.2,1,2.2,2.2,2.2c0,0,0,0,0.1,0c1.2,0,2.2-1,2.2-2.2  c0.1-9.9,4.1-17.8,8.7-23.8c5.7,3.1,12.9,4,17.9,0.6C72.1,41.5,73.7,21.7,73.1,10z"></path>	<path d="M25,22.6c2.5,0.6,4.5,2.7,5.2,5.2c0.1,0.3,0.4,0.6,0.8,0.6l0,0c0.3,0,0.7-0.3,0.8-0.6c0.6-2.5,2.7-4.5,5.2-5.2l0,0  c0.3-0.1,0.6-0.4,0.6-0.8s-0.3-0.7-0.6-0.8c-2.6-0.6-4.5-2.6-5.2-5.2c-0.1-0.3-0.4-0.6-0.8-0.6l0,0c-0.3,0-0.7,0.3-0.8,0.6  c-0.6,2.6-2.6,4.5-5.2,5.2c-0.3,0.1-0.6,0.4-0.6,0.8S24.7,22.5,25,22.6z"></path>	<path d="M37.3,13.7c2.1,0.5,3.8,2.2,4.3,4.3c0.1,0.3,0.3,0.5,0.6,0.5l0,0c0.3,0,0.6-0.2,0.6-0.5c0.5-2.1,2.2-3.8,4.3-4.3l0,0  c0.3-0.1,0.5-0.3,0.5-0.7c0-0.3-0.2-0.6-0.5-0.6c-2.2-0.5-3.8-2.2-4.3-4.3c-0.1-0.3-0.3-0.5-0.7-0.5l0,0c-0.3,0-0.6,0.2-0.6,0.5  c-0.5,2.2-2.2,3.8-4.3,4.3c-0.3,0.1-0.5,0.3-0.5,0.6C36.8,13.3,37,13.6,37.3,13.7z"></path>	<path d="M14.1,16.8c2,0.5,3.6,2.1,4.1,4.1c0.1,0.3,0.3,0.5,0.6,0.5l0,0c0.3,0,0.6-0.2,0.6-0.5c0.5-2,2.1-3.6,4.1-4.1l0,0  c0.3-0.1,0.5-0.3,0.5-0.6c0-0.3-0.2-0.6-0.5-0.6c-2-0.5-3.6-2-4.1-4.1c-0.1-0.3-0.3-0.5-0.6-0.5l0,0c-0.3,0-0.6,0.2-0.6,0.5  c-0.5,2-2,3.6-4.1,4.1c-0.3,0.1-0.5,0.3-0.5,0.6C13.6,16.4,13.8,16.7,14.1,16.8z"></path></g></svg>