<svg xmlns="http://www.w3.org/2000/svg" xmlns:xlink="http://www.w3.org/1999/xlink" x="0px" y="0px" viewBox="0 0 80 80" style="enable-background:new 0 0 80 80;" xml:space="preserve"><g class="block-1">	<path d="M67.4,11c3,0,5.4,2.4,5.4,5.4v3.2c0,3-2.4,5.4-5.4,5.4H12.6c-3,0-5.4-2.4-5.4-5.4v-3.2c0-3,2.4-5.4,5.4-5.4H67.4 M67.4,8.8  H12.6C8.4,8.8,5,12.2,5,16.4v3.2c0,4.2,3.4,7.6,7.6,7.6h54.8c4.2,0,7.6-3.4,7.6-7.6v-3.2C75,12.2,71.6,8.8,67.4,8.8z"></path>	<path d="M67.4,27.7H12.6c-4.5,0-8.1-3.6-8.1-8.1v-3.2c0-4.5,3.6-8.1,8.1-8.1h54.8c4.5,0,8.1,3.6,8.1,8.1v3.2  C75.5,24.1,71.9,27.7,67.4,27.7z M12.6,9.4c-3.9,0-7,3.2-7,7v3.2c0,3.9,3.2,7,7,7h54.8c3.9,0,7-3.2,7-7v-3.2c0-3.9-3.2-7-7-7H12.6z   M67.4,25.6H12.6c-3.3,0-6-2.7-6-6v-3.2c0-3.3,2.7-6,6-6h54.8c3.3,0,6,2.7,6,6v3.2C73.4,22.9,70.7,25.6,67.4,25.6z M12.6,11.5  c-2.7,0-4.9,2.2-4.9,4.9v3.2c0,2.7,2.2,4.9,4.9,4.9h54.8c2.7,0,4.9-2.2,4.9-4.9v-3.2c0-2.7-2.2-4.9-4.9-4.9H12.6z"></path></g><g class="block-2">	<path d="M67.4,33.2c3,0,5.4,2.4,5.4,5.4v3.1c0,3-2.4,5.4-5.4,5.4H12.6c-3,0-5.4-2.4-5.4-5.4v-3.1c0-3,2.4-5.4,5.4-5.4H67.4   M67.4,31H12.6C8.4,31,5,34.4,5,38.6v3.1c0,4.2,3.4,7.6,7.6,7.6h54.8c4.2,0,7.6-3.4,7.6-7.6v-3.1C75,34.4,71.6,31,67.4,31z"></path>	<path d="M67.4,49.9H12.6c-4.5,0-8.1-3.6-8.1-8.1v-3.1c0-4.5,3.6-8.1,8.1-8.1h54.8c4.5,0,8.1,3.6,8.1,8.1v3.1  C75.5,46.2,71.9,49.9,67.4,49.9z M12.6,31.6c-3.9,0-7,3.2-7,7v3.1c0,3.9,3.2,7,7,7h54.8c3.9,0,7-3.2,7-7v-3.1c0-3.9-3.2-7-7-7H12.6  z M67.4,47.7H12.6c-3.3,0-6-2.7-6-6v-3.1c0-3.3,2.7-6,6-6h54.8c3.3,0,6,2.7,6,6v3.1C73.4,45,70.7,47.7,67.4,47.7z M12.6,33.7  c-2.7,0-4.9,2.2-4.9,4.9v3.1c0,2.7,2.2,4.9,4.9,4.9h54.8c2.7,0,4.9-2.2,4.9-4.9v-3.1c0-2.7-2.2-4.9-4.9-4.9H12.6z"></path></g><g class="block-3">	<path d="M67.4,55.4c3,0,5.4,2.4,5.4,5.4v3.1c0,3-2.4,5.4-5.4,5.4H12.6c-3,0-5.4-2.4-5.4-5.4v-3.1c0-3,2.4-5.4,5.4-5.4H67.4   M67.4,53.2H12.6c-4.2,0-7.6,3.4-7.6,7.6v3.1c0,4.2,3.4,7.6,7.6,7.6h54.8c4.2,0,7.6-3.4,7.6-7.6v-3.1C75,56.6,71.6,53.2,67.4,53.2z  "></path>	<path d="M67.4,72H12.6c-4.5,0-8.1-3.6-8.1-8.1v-3.1c0-4.5,3.6-8.1,8.1-8.1h54.8c4.5,0,8.1,3.6,8.1,8.1v3.1  C75.5,68.4,71.9,72,67.4,72z M12.6,53.7c-3.9,0-7,3.2-7,7v3.1c0,3.9,3.2,7,7,7h54.8c3.9,0,7-3.2,7-7v-3.1c0-3.9-3.2-7-7-7H12.6z   M67.4,69.9H12.6c-3.3,0-6-2.7-6-6v-3.1c0-3.3,2.7-6,6-6h54.8c3.3,0,6,2.7,6,6v3.1C73.4,67.2,70.7,69.9,67.4,69.9z M12.6,55.9  c-2.7,0-4.9,2.2-4.9,4.9v3.1c0,2.7,2.2,4.9,4.9,4.9h54.8c2.7,0,4.9-2.2,4.9-4.9v-3.1c0-2.7-2.2-4.9-4.9-4.9H12.6z"></path></g></svg>