<svg xmlns="http://www.w3.org/2000/svg" xmlns:xlink="http://www.w3.org/1999/xlink" x="0px" y="0px" viewBox="0 0 34 15" style="enable-background:new 0 0 34 15;" xml:space="preserve"> <g> <path d="M27.1,6.4c0.1,0,0.1,0,0.2,0.1c0.7,0.5,1.8,1.7,0,3.1c0,0-0.2,0.1-0.3,0.1l-5.5,0l-4.1,0h-3.1c0,0-5.1-0.3-8.6-0.9 C-0.4,8.1,2,7.4,5.8,7c-0.4-0.1,9-0.6,9-0.6L27.1,6.4L27.1,6.4z"></path> <path d="M21,3.7c-0.1,0-0.1-0.1-0.1-0.2c-0.4-0.8-0.6-2.4,1.7-2.6c0,0,0.2,0,0.3,0l4.6,3.1l0.8,0.5l2,1.4c0.4,0.3,0.8,0.6,1.2,0.9 l0.3,0.2L32,7c0,0,0,0,0,0.1l-0.1,0.1l-0.5,0.6c0,0-0.1,0.1-0.3,0.3c-0.2,0.2-0.5,0.5-0.9,0.9c-0.2,0.2-0.4,0.4-0.6,0.6 c-0.1,0.1-0.2,0.2-0.4,0.3c0,0-0.1,0.1-0.1,0.1l-0.1,0c0,0-0.1,0.1-0.1,0.1c-0.1,0.1-0.3,0.2-0.5,0.4c-0.2,0.1-0.3,0.3-0.5,0.4 c-0.7,0.5-1.6,1.1-2.5,1.6c-0.9,0.5-1.9,0.9-2.8,1.1c-1.5,0.5-2.5,0.6-3.1,0.7c-0.6,0-0.8-0.1-0.7-0.3c0.2-0.4,1.6-1.1,3.1-2 c-0.2,0.1,1.7-1,3.3-2.4c0.4-0.4,0.8-0.7,1.2-1.1c0.2-0.2,0.4-0.4,0.5-0.5C27.1,7.6,27,7.7,27,7.7c0,0,0,0,0,0c0-0.1-0.1,0-0.1,0 l-0.5-0.3l-0.8-0.5L21,3.7L21,3.7z"></path> </g> </svg>