<svg xmlns="http://www.w3.org/2000/svg" x="0px" y="0px" viewBox="0 0 40 40" style="enable-background:new 0 0 40 40;" xml:space="preserve"><g>	<path d="M38.4,35.9c1.6-1.6,1.4-4.2-0.5-5.6l-6.3-4.6c-1.5-1.1-3.5-0.9-4.8,0.3l-1.1,1.1c-0.1,0.1-0.3,0.2-0.4,0.3  c-0.5,0.5-1.3,0.7-2,0.4C18,25.8,14.2,22,12.1,16.5c-0.3-0.7-0.1-1.5,0.4-2l0.2-0.2c0-0.1,0.1-0.1,0.1-0.2l1.1-1.1  c1.3-1.3,1.4-3.3,0.3-4.8L9.7,2c-1.3-1.8-4-2-5.6-0.5L3,2.7C1.7,4,0.9,5.6,0.6,7.4c0,0.2-0.1,0.5-0.1,0.7C0.3,12.4,1.8,17.1,5,22  c0.1,0.2,0.2,0.3,0.3,0.5c3.2,4.8,7.3,8.9,12.1,12.1c0.2,0.1,0.3,0.2,0.5,0.3c4.9,3.2,9.6,4.8,14,4.5c0.2,0,0.5,0,0.7-0.1  c1.8-0.3,3.4-1.1,4.7-2.4L38.4,35.9L38.4,35.9z"></path>	<path d="M39.5,19.1c-0.4-4.8-2.4-9.3-5.8-12.7c-3.4-3.4-7.9-5.5-12.7-5.8c-0.7-0.1-1.4,0.5-1.4,1.2c-0.1,0.7,0.5,1.4,1.2,1.4  c4.2,0.3,8.1,2.1,11.1,5.1c3,3,4.8,6.9,5.1,11.1c0.1,0.7,0.6,1.2,1.3,1.2c0,0,0.1,0,0.1,0C39,20.4,39.6,19.8,39.5,19.1L39.5,19.1z"></path>	<path d="M28.7,12.3C26.6,10.2,24,8.9,21,8.5c-0.8-0.1-1.4,0.4-1.5,1.2c-0.1,0.8,0.4,1.4,1.2,1.5c2.3,0.3,4.4,1.3,6.1,3  c1.7,1.7,2.7,3.8,3,6.1c0.1,0.7,0.7,1.2,1.4,1.2c0.1,0,0.1,0,0.2,0c0.8-0.1,1.3-0.8,1.2-1.5C32.1,17,30.8,14.4,28.7,12.3L28.7,12.3  z"></path></g></svg>