<svg xmlns="http://www.w3.org/2000/svg" xmlns:xlink="http://www.w3.org/1999/xlink" x="0px" y="0px" viewBox="0 0 300 150" style="enable-background:new 0 0 300 150;" xml:space="preserve"><style type="text/css">	.st0{fill:#FFFFFF;}</style><path class="st0" d="M94.1,81.8c-3.3-4.3-4.8-9.6-4.3-14.9c0.5-5.3,3.1-10.3,7.1-13.8c0.9-0.9,1.9-1.8,2.9-2.6 c0-0.1-0.1-0.1-0.1-0.2c-0.4-0.5-0.8-0.9-1.2-1.4c-3.1-3.8-7.4-6.4-12.1-7.3c-3.8-0.7-7.6-0.5-11.3,0.7c-2.5,0.7-5,1.6-7.4,2.3 c-1.7,0.6-3.6,0.7-5.4,0.3c-1.3-0.3-2.6-0.6-3.9-1c-3-1-6.1-1.7-9.2-2.1c-3-0.4-6,0-8.8,1c-2.8,1-5.3,2.7-7.4,5 c-4.1,4.4-6.6,10.1-7.3,16c-1,6.8-0.6,13.7,1.3,20.3c2.1,7.4,5.5,14.5,9.9,20.8c1.7,2.6,3.9,4.8,6.4,6.6c1.2,0.9,2.6,1.6,4,1.9 c1.5,0.3,3,0.4,4.5,0.1c2-0.5,3.9-1.2,5.8-1.9c2.4-1,5.1-1.6,7.7-1.7c2.2,0.1,4.3,0.5,6.4,1.2c2,0.6,4,1.3,6.1,1.9 c1.9,0.6,3.9,0.6,5.8,0.2c1.9-0.4,3.7-1.3,5.1-2.6c1-0.8,1.9-1.6,2.7-2.5c4.3-4.8,7.7-10.4,10.1-16.4c0.4-1,0.8-2.1,1.2-3.2 c-0.4-0.2-0.8-0.3-1.2-0.4C98.4,86.5,95.9,84.4,94.1,81.8z M69,41.5c2.3-1,4.3-2.5,5.9-4.3c3.7-3.8,6-8.9,6.3-14.2 c0-1,0-2.1-0.1-3.1c-5.4,0.8-10.2,3.5-13.7,7.7c-3.4,4.2-5.1,9.6-4.8,15c0,0,0.1,0.1,0.1,0C64.9,42.6,67,42.2,69,41.5 M167.6,39.5 c-6.3-4.8-14.2-7.2-22.1-6.5c-6.5,0-13,0.5-19.5,1.5v77.8h10.2V80.8c2.7,0.6,5.4,0.8,8.2,0.7c4.4,0.3,8.8-0.4,12.9-1.9 c4.1-1.5,7.9-3.8,11.1-6.8c2.1-2.3,3.7-4.9,4.7-7.8c1-2.9,1.5-6,1.4-9c0.1-3.1-0.4-6.2-1.6-9S169.9,41.6,167.6,39.5 M144.6,73.3 c-2.8,0.1-5.6-0.2-8.4-0.8V41.8c3.1-0.6,6.4-0.9,9.6-0.8c11.2,0,18.5,5,18.5,15.4C164.3,67.3,156.9,73.3,144.6,73.3 M264.2,47.7 L253,80.9c-1.4,4.1-2.6,8.4-3.6,11.8h-0.2c-0.9-3.4-2.3-7.8-3.6-11.6l-12.4-33.4h-11.2l20.9,52.1c0.4,0.9,0.6,1.8,0.7,2.7 c-0.1,0.9-0.4,1.7-0.8,2.5c-1.9,4.4-4.9,8.4-8.6,11.5c-2.6,2.2-5.7,3.9-9,5l2.6,8.6c4.7-1.1,9-3.4,12.6-6.7c7-6.1,12-16,19.4-35.4 L275,47.8L264.2,47.7z M219.5,77.6c0-11.3-4.2-23.1-21.5-23.1c-6.5-0.1-12.9,1.7-18.5,5l2.3,6.8c4.4-2.7,9.5-4.2,14.7-4.2 c1.8-0.2,3.5,0,5.2,0.6c1.7,0.6,3.2,1.6,4.4,2.8c1.2,1.3,2.2,2.8,2.7,4.5c0.6,1.7,0.7,3.5,0.5,5.2v1.2c-21.8-0.1-33.9,7.4-33.9,21 c0,2.2,0.4,4.4,1.3,6.5c0.9,2.1,2.2,3.9,3.8,5.4c1.6,1.5,3.5,2.7,5.6,3.4c2.1,0.7,4.3,1,6.5,0.9c3.3,0.1,6.6-0.7,9.6-2.1 c3-1.5,5.6-3.6,7.6-6.3h0.3l0.8,7.1h9.3c-0.7-4.5-1-9-0.9-13.6L219.5,77.6z M209.6,93.3c0,1.1-0.2,2.2-0.6,3.3c-1,2.8-2.8,5.3-5.3,7 c-2.5,1.7-5.4,2.6-8.4,2.5c-1.3,0.1-2.6-0.1-3.8-0.6c-1.2-0.5-2.3-1.2-3.3-2.1c-0.9-0.9-1.6-2.1-2.1-3.3c-0.4-1.2-0.6-2.5-0.5-3.9 c0-11,12.7-13,23.9-12.7V93.3z"></path></svg>