<svg xmlns="http://www.w3.org/2000/svg" xmlns:xlink="http://www.w3.org/1999/xlink" x="0px" y="0px"
	 viewBox="0 0 141 53" style="enable-background:new 0 0 141 53;" xml:space="preserve">
<style type="text/css">
	.logo-light { fill:#FFFFFF; }
	.logo-clr { fill:#E48413; }
</style>
<path class="logo-light" d="M118.8,25.8c0.8,0,1.7,0,2.8,0h0.9V26c0,4.1-0.1,8.3-0.3,12.5c-0.1,4.3,0,8.4,0.2,12.5
	c-0.2,0.2-0.6,0.3-1.3,0.3c-0.7,0-1.4,0-2.2,0c-0.8,0-1.5,0-2.2-0.1c-0.7,0-1.2,0-1.4,0.1c0.2-2.1,0.2-4.3,0.2-6.5
	c0-2.2,0-4.4-0.1-6.5c-0.1-2.2-0.1-4.3-0.1-6.4c0-2.1,0.1-4.2,0.3-6.2v-0.1c0.1,0,0.4,0,0.7,0c0.3,0,0.6,0.1,0.8,0.1
	C117.4,25.7,118.1,25.8,118.8,25.8z M115.4,18.7c-0.1-1.1-0.1-2.4-0.1-4l6.9,0.2c0,0.2,0,0.6,0,1.1c0,0.5,0.1,1.1,0.1,1.7
	c0,0.6,0.1,1.3,0.1,1.9c0,0.6,0.1,1.2,0.1,1.7c-0.1,0.2-0.5,0.3-1,0.4c-0.5,0.1-1,0.1-1.7,0.1c-0.6,0-1.3-0.1-2.1-0.1
	c-0.7-0.1-1.4-0.1-2.1-0.1C115.6,20.8,115.5,19.8,115.4,18.7z"/>
<path class="logo-light" d="M87.4,27.4c0,0.4,0,0.8,0.1,1.3c0.2-0.1,0.4-0.2,0.6-0.4c0.3-0.1,0.5-0.3,0.7-0.4c0.7-0.5,1.5-0.9,2.4-1.2
	s1.8-0.5,2.7-0.5c0.9,0,1.9,0.1,2.7,0.3c0.9,0.2,1.7,0.7,2.4,1.3c0.2,0.2,0.3,0.5,0.5,0.9c0.2-0.1,0.4-0.2,0.6-0.3
	c0.2-0.1,0.4-0.3,0.6-0.4c0.7-0.5,1.5-0.9,2.4-1.2c0.9-0.3,1.8-0.5,2.7-0.5c0.9,0,1.9,0.1,2.7,0.3c0.9,0.2,1.7,0.7,2.4,1.3
	c0.3,0.3,0.6,0.9,0.8,1.9c0.2,0.9,0.3,2.1,0.4,3.4c0.1,1.4,0.1,2.8,0.1,4.5c0,1.6,0,3.2-0.1,4.9c0,1.6-0.1,3.2-0.1,4.7
	c0,1.5,0,2.9,0,4c-1.2,0.2-2.2,0.2-3.2,0.2c-0.9,0-2,0-3.1,0c-0.1-0.8-0.1-1.7-0.1-2.6c0-1,0-2,0-3c0-1,0-2.1,0-3.1c0-1,0-2-0.1-2.9
	c0-0.4-0.1-0.8-0.1-1.3c0-0.5-0.1-1-0.2-1.5c-0.1-0.5-0.2-0.9-0.4-1.3c-0.1-0.4-0.3-0.7-0.6-0.9c0,0-0.1-0.1-0.1-0.1
	c0,0-0.1,0-0.1-0.1c-0.2-0.1-0.5-0.2-0.8-0.3c-0.3-0.1-0.6-0.1-1-0.1c-0.3,0-0.7,0.1-1.1,0.2c-0.3,0.1-0.7,0.3-1,0.5
	c0,1.3,0,2.7,0,4.2c0,1.5-0.1,2.9-0.1,4.4c0,1.4-0.1,2.8-0.1,4.2c0,1.3,0,2.5,0.1,3.5c-1.2,0.2-2.2,0.2-3.2,0.2c-0.9,0-2,0-3.1,0
	c-0.1-0.8-0.1-1.7-0.1-2.6c0-1,0-2,0-3c0-1,0-2.1,0-3.1c0-1,0-2-0.1-2.9c0-0.4-0.1-0.8-0.1-1.3c0-0.5-0.1-1-0.2-1.5
	c-0.1-0.5-0.2-0.9-0.4-1.3c-0.1-0.4-0.3-0.7-0.6-0.9c0,0-0.1-0.1-0.1-0.1c0,0-0.1,0-0.1-0.1c-0.3-0.1-0.7-0.2-1.2-0.3
	c-0.5-0.1-1-0.1-1.5,0.1c-0.5,0.1-1,0.4-1.4,0.9c-0.4,0.4-0.6,1.1-0.7,2c-0.1,1.2-0.1,2.4-0.1,3.5c0,1.1,0.1,2.2,0.1,3.4
	c0.1,1.1,0.1,2.2,0.1,3.3c0,1.1-0.1,2.2-0.2,3.3v0.2c-0.6,0.2-1.1,0.3-1.5,0.3c-0.4,0-0.8,0-1.3,0c-0.4,0-0.9,0-1.5-0.1
	c-0.5,0-1.2,0-2,0.1c0-4.2-0.1-8.3-0.2-12.5c-0.1-4.2,0-8.5,0.1-12.9c0.4,0,0.7,0.1,1,0.1c0.3,0,0.5,0,0.8,0s0.5,0,0.8,0
	c0.3,0,0.6-0.1,1-0.1c0.1,0,0.4,0,0.7-0.1c0.3-0.1,0.7-0.1,1-0.2c0.3,0,0.6,0,0.9,0c0.3,0,0.4,0.1,0.4,0.2
	C87.4,26.6,87.4,27.1,87.4,27.4z"/>
<path class="logo-light" d="M52.7,27.4c0,0.4,0,0.8,0.1,1.3c0.2-0.1,0.4-0.2,0.6-0.4c0.3-0.1,0.5-0.3,0.7-0.4c0.7-0.5,1.5-0.9,2.4-1.2
	c0.9-0.3,1.8-0.5,2.7-0.5c0.9,0,1.9,0.1,2.7,0.3c0.9,0.2,1.7,0.7,2.4,1.3c0.2,0.2,0.3,0.5,0.5,0.9c0.2-0.1,0.4-0.2,0.6-0.3
	c0.2-0.1,0.4-0.3,0.6-0.4c0.7-0.5,1.5-0.9,2.4-1.2c0.9-0.3,1.8-0.5,2.7-0.5c0.9,0,1.9,0.1,2.7,0.3c0.9,0.2,1.7,0.7,2.4,1.3
	c0.3,0.3,0.6,0.9,0.8,1.9c0.2,0.9,0.3,2.1,0.4,3.4c0.1,1.4,0.1,2.8,0.1,4.5c0,1.6,0,3.2-0.1,4.9c0,1.6-0.1,3.2-0.1,4.7
	c0,1.5,0,2.9,0.1,4C76,51.4,75,51.5,74,51.4c-0.9,0-2,0-3.1,0c-0.1-0.8-0.1-1.7-0.1-2.6c0-1,0-2,0-3c0-1,0-2.1,0-3.1
	c0-1,0-2-0.1-2.9c0-0.4-0.1-0.8-0.1-1.3c0-0.5-0.1-1-0.2-1.5c-0.1-0.5-0.2-0.9-0.4-1.3c-0.1-0.4-0.3-0.7-0.6-0.9
	c0,0-0.1-0.1-0.1-0.1c0,0-0.1,0-0.1-0.1c-0.2-0.1-0.5-0.2-0.8-0.3c-0.3-0.1-0.6-0.1-1-0.1c-0.3,0-0.7,0.1-1.1,0.2
	c-0.3,0.1-0.7,0.3-1,0.5c0,1.3,0,2.7,0,4.2c0,1.5-0.1,2.9-0.1,4.4c0,1.4-0.1,2.8-0.1,4.2c0,1.3,0,2.5,0.1,3.5
	c-1.2,0.2-2.2,0.2-3.2,0.2c-0.9,0-2,0-3.1,0c-0.1-0.8-0.1-1.7-0.1-2.6c0-1,0-2,0-3c0-1,0-2.1,0-3.1c0-1,0-2-0.1-2.9
	c0-0.4-0.1-0.8-0.1-1.3c0-0.5-0.1-1-0.2-1.5c-0.1-0.5-0.2-0.9-0.4-1.3c-0.1-0.4-0.3-0.7-0.6-0.9c0,0-0.1-0.1-0.1-0.1
	c0,0-0.1,0-0.1-0.1c-0.3-0.1-0.7-0.2-1.2-0.3c-0.5-0.1-1-0.1-1.5,0.1c-0.5,0.1-1,0.4-1.4,0.9c-0.4,0.4-0.6,1.1-0.7,2
	c-0.1,1.2-0.1,2.4-0.1,3.5c0,1.1,0.1,2.2,0.1,3.4c0.1,1.1,0.1,2.2,0.1,3.3c0,1.1-0.1,2.2-0.2,3.3v0.2c-0.6,0.2-1.1,0.3-1.5,0.3
	c-0.4,0-0.8,0-1.3,0c-0.4,0-0.9,0-1.5-0.1c-0.5,0-1.2,0-2,0.1c0-4.2-0.1-8.3-0.2-12.5c-0.1-4.2,0-8.5,0.1-12.9c0.4,0,0.7,0.1,1,0.1
	c0.3,0,0.5,0,0.8,0s0.5,0,0.8,0c0.3,0,0.6-0.1,1-0.1c0.1,0,0.4,0,0.7-0.1c0.3-0.1,0.7-0.1,1-0.2c0.3,0,0.6,0,0.9,0
	c0.3,0,0.4,0.1,0.4,0.2C52.7,26.6,52.8,27.1,52.7,27.4z"/>
<path class="logo-light" d="M35.7,49.9c0-0.4,0-0.8,0-1.3c-0.2,0.1-0.4,0.2-0.7,0.4c-0.2,0.1-0.4,0.3-0.6,0.4c-0.7,0.5-1.5,0.9-2.4,1.2
	c-0.9,0.3-1.8,0.5-2.7,0.5c-0.9,0-1.8-0.1-2.7-0.3c-0.9-0.2-1.7-0.7-2.4-1.3c-0.3-0.3-0.6-0.9-0.8-1.9c-0.2-1-0.3-2.1-0.4-3.5
	c0-1.4-0.1-2.8-0.1-4.4c0-1.6,0.1-3.2,0.1-4.9c0-1.7,0.1-3.2,0.1-4.8c0-1.5,0-2.9-0.1-4c1.2-0.2,2.2-0.2,3.1-0.2c0.9,0,2,0,3.2,0
	c0.1,0.8,0.1,1.7,0.1,2.6c0,1,0,2-0.1,3c0,1,0,2.1,0,3.1c0,1,0.1,2,0.2,2.9c0,0.4,0.1,0.9,0.1,1.4c0,0.5,0.1,0.9,0.2,1.4
	c0.1,0.5,0.2,0.9,0.4,1.3c0.2,0.4,0.4,0.7,0.7,0.9c0,0,0.1,0.1,0.1,0.1s0.1,0,0.1,0.1c0.3,0.1,0.7,0.3,1.2,0.4
	c0.5,0.1,1.1,0,1.6-0.1c0.5-0.2,1-0.5,1.4-0.9c0.4-0.5,0.6-1.2,0.7-2.1c0.1-1.1,0.1-2.3,0.1-3.4c0-1.1-0.1-2.3-0.2-3.4
	c0-1.1-0.1-2.3-0.1-3.4c0-1.1,0.1-2.2,0.3-3.3v-0.2c0.6-0.2,1.1-0.3,1.5-0.3c0.4,0,0.9,0,1.3,0c0.4,0,0.9,0,1.5,0.1
	c0.5,0,1.2,0,2-0.1c0,4.2,0,8.3,0.1,12.5c0.1,4.2,0.1,8.5-0.1,12.9c-0.4,0-0.7-0.1-1-0.1c-0.3,0-0.5-0.1-0.8-0.1
	c-0.2,0-0.5,0-0.8,0.1c-0.3,0-0.6,0-1,0.1c-0.1,0-0.4,0-0.7,0.1c-0.3,0-0.7,0.1-1,0.1c-0.3,0-0.6,0-0.9,0c-0.3,0-0.4-0.1-0.4-0.2
	C35.7,50.7,35.7,50.2,35.7,49.9z"/>
<path class="logo-light" d="M23.7,16.1c0.3,0,0.6,0,0.8,0.1v0.1c-0.9,3-2.1,6-3.3,8.9c-1.3,2.9-2.6,5.8-4,8.7c-1.4,2.9-2.7,5.8-4.1,8.7
	c-1.3,2.9-2.5,5.8-3.5,8.8c-0.2,0-0.4-0.1-0.6-0.1s-0.4,0-0.7,0c-0.7,0-1.5,0-2.3,0.1c-0.8,0.1-1.7,0.1-2.4,0.1c-0.2,0-0.4,0-0.6,0
	c-0.2,0-0.4,0-0.6-0.1H2.3c0.9-2.7,1.9-5.6,3.1-8.6c1.2-3,2.4-6,3.6-9v-0.1c-0.4-1.5-0.8-3-1.4-4.4c-0.6-1.5-1.2-3-1.8-4.4
	c-0.6-1.5-1.2-2.9-1.8-4.4c-0.6-1.5-1-2.9-1.4-4.3c0.7,0,1.4-0.1,2.1-0.2c0.7-0.1,1.5-0.2,2.2-0.2c0.4,0,0.8,0,1.2,0.1
	c0.4,0,0.8,0.1,1.2,0.3c0.2,0.7,0.4,1.6,0.7,2.6c0.3,1,0.7,2,1,3.1c0.4,1,0.7,2,1.1,3c0.4,0.9,0.8,1.7,1.1,2.4
	c0.3-0.6,0.7-1.4,1-2.3c0.4-1,0.7-2,1.1-3c0.4-1,0.7-2.1,1.1-3.1c0.3-1,0.7-1.9,1-2.5c0.6-0.1,1.4-0.2,2.4-0.3c1-0.1,2-0.1,2.9-0.1
	C23,16.1,23.4,16.1,23.7,16.1z"/>
<path class="logo-clr" d="M125.2,34.2c-0.4,0.4-1,0.6-1.7,0.7c-0.1,0-0.1,0-0.2,0l0,0c0,0-0.2,0-0.4,0c-0.5-0.4-1.2-1.1-2-1.7
	c0.5,0,1,0,1.4,0c0.2,0,0.3,0,0.5,0c-0.2-0.3-0.9-0.9-2.6-1.7c-2.6-1.4-5-2.4-7.3-3.2c-3.4-1.1-6.8-1.8-10.2-1.9l-1.5-0.1
	c0,0,6.7-1.1,14.3,1.7c2.3,0.8,5.7,2.2,8.8,4.5l0.7-4.6c-1-1.5-5-5.6-19.9-7.8l0-0.5c0,0,3.8,0.2,8.3,1.3c4.1,1,9.5,2.9,12.6,6.4
	c0.1-0.1,0.1-0.1,0.2-0.2c0.1-0.1,0.2-0.3,0.3-0.4c0.2-0.7-0.2-1.4-0.6-1.9l-0.1,0.1c0,0-2.5-1.8-6.2-3.5c-3.4-1.6-8.6-3.4-14.1-3.2
	c-0.3,0-0.6,0-0.9,0.1c-0.4,0.3-0.5,0.8-0.6,1.2l0,0l-2.5,6.5l1.3-6.4c0,0,0-0.1,0-0.2c0-0.3-0.1-0.8,0.2-1.4
	c-0.9-0.3-2.8-1.2-3.8-3c-0.7-1.2-0.9-2.3-0.6-3.2c0.1-0.3,0.3-0.6,0.5-0.9c-0.1-0.4-0.2-1.1-0.2-1.8c0-1.8,0.6-3.5,1.8-4.9
	c1.7-1.9,4.2-2.4,6.1-2.5l0,0c1.8-0.1,3.8,0.2,5.1,0.8c0.5-0.1,1.4-0.3,2.7-0.4c1.7-0.1,4.5,0.2,7.7,1.6c2.3,1,4.2,2.2,5.5,3.6
	c1.1,1.1,1.5,2.1,1.7,2.5l0,0c0,0,0,0,0.1,0c1.7,0.8,5.8,3.2,6.7,6.9c0.2,0.8,0.6,1.4,1,2.1c0.6,0.9,1.1,1.8,1.3,3
	c0.3,1.9-0.3,4.8-1.9,6.4c-0.9,1-2.2,1.5-3.9,1.6c-0.3,0.2-0.7,0.5-1.3,0.7c-0.4,0.1-0.8,0.2-1.2,0.2c-0.9,0-1.9-0.2-2.8-0.8
	c-0.4-0.2-0.8-0.5-1.1-0.7l-0.6,3.9C125.7,33.2,125.6,33.7,125.2,34.2L125.2,34.2z M134.9,17.6c-0.1-0.2-0.1-0.4-0.2-0.6
	c-0.5-2-2.5-4-6-6c-0.3-0.2-0.4-0.2-0.4-0.3l-0.1-0.1l0-0.1c0,0-0.4-0.8-1.4-2c-1-1.1-2.2-2.2-5.1-3.5c-2.9-1.3-5.4-1.5-6.9-1.5
	c-1.6,0-2.6,0.4-2.6,0.4l-0.3,0.1l-0.1,0c-1.6,0.5-2.8,1.4-3.6,2.6l-0.4-0.2c0-0.1,0.8-1.6,2.5-2.9c-1-0.3-2.2-0.4-3.3-0.3
	c-1.3,0.1-3.6,0.4-5,1.9c-1,1.1-1.4,2.3-1.4,3.7c0,1.1,0.3,1.9,0.3,1.9l0.3,0.7l-0.7,0.3c0,0-0.2,0.1-0.3,0.3
	c-0.1,0.2-0.1,0.8,0.5,1.9c0.5,0.9,1.5,1.7,2.6,2.1c0.9,0.3,1.8,0.4,2.8,0.4c0.1-1.5,0.1-4.9-0.9-8.1l0.4-0.2c0.1,0.1,1.5,3,1.9,8.3
	c1.7,0.1,3.5,0.4,5.2,0.8c-0.3-3.1,1.1-6.2,1.2-6.3l0.4,0.2c-0.8,3.1-0.4,5.4,0,6.6c1.6,0.5,3.1,1,4.6,1.7c0.4,0.2,0.9,0.4,1.4,0.7
	c2.7-0.2,4.9-1.6,6.4-4.1c1.1-1.9,1.5-3.7,1.5-3.8l0.5,0.1c-0.2,3.2-1.5,7.2-6.5,8.8c1.2,0.7,2.2,1.5,3.2,2.4l0.4,0.2
	c1.2,0.5,2.4,0.7,3.5,0.7c2.6-0.1,4.2-1.7,4.7-2.3l0.5-1C135.2,19.9,135.1,18.5,134.9,17.6L134.9,17.6z M128.3,28.4
	c0.7,0.4,1.3,0.6,2,0.5c1.1,0,1.7-0.7,1.7-0.7l0.2-0.2l0.3,0c1.7,0,2.9-0.6,3.5-1.7c1.3-2.2,1.2-4.8,0-6.7c0,0-0.1-0.1-0.1-0.1
	c-0.3,1.3-1,2-1.1,2l-0.6,0.6l0.2,0.2c-0.7,1-1.5,1.8-2.4,2.4c0,0-0.1,0.1-0.3,0.2c-0.2,0.1-0.5,0.2-0.7,0.3
	c-1.1,0.4-2.2,0.6-3.4,0.5c0.2,0.8,0,1.4-0.3,1.8l0.1,0l-0.3,0.4C127.6,28,127.9,28.2,128.3,28.4z"/>
</svg>
