<svg xmlns="http://www.w3.org/2000/svg" xmlns:xlink="http://www.w3.org/1999/xlink" x="0px" y="0px" viewBox="0 0 300 150" style="enable-background:new 0 0 300 150;" xml:space="preserve"><style type="text/css">	.st0{fill:#FFFFFF;}	.st1{fill:#179BD7;}</style><g>	<path class="st0" d="M57.3,59.4c-1.1,6.7-6.4,6.7-11.6,6.7h-2.9l2.1-12.6c0.1-0.4,0.3-0.7,0.5-0.9c0.3-0.2,0.7-0.4,1.1-0.4h1.3  c3.5,0,6.8,0,8.5,1.9c0.5,0.7,0.9,1.6,1.1,2.5C57.6,57.6,57.5,58.5,57.3,59.4z M55.1,41.9H35.6c-0.6,0-1.3,0.2-1.8,0.6  c-0.5,0.4-0.8,1-0.9,1.6L25,92.2c0,0.2,0,0.5,0,0.7c0.1,0.2,0.2,0.4,0.3,0.6c0.2,0.2,0.3,0.3,0.6,0.4c0.2,0.1,0.4,0.1,0.7,0.1h9.3  c0.6,0,1.3-0.2,1.8-0.6c0.5-0.4,0.8-1,0.9-1.6l2.1-13c0.1-0.6,0.4-1.2,0.9-1.6c0.5-0.4,1.1-0.6,1.8-0.6h6.2  c12.8,0,20.2-6,22.2-17.8c0.5-2.1,0.6-4.2,0.2-6.3c-0.4-2.1-1.3-4.1-2.6-5.8c-1.9-1.7-4.1-3.1-6.5-3.9C60.2,42,57.6,41.7,55.1,41.9  z"></path>	<path class="st0" d="M99.6,79.9c-0.4,2.5-1.7,4.8-3.7,6.5c-2,1.6-4.5,2.5-7.2,2.5c-1.2,0.1-2.4,0-3.5-0.5c-1.1-0.4-2.1-1.1-2.9-2  s-1.3-2-1.6-3.1c-0.3-1.1-0.2-2.3,0.1-3.5c0.4-2.5,1.7-4.8,3.6-6.5c2-1.7,4.5-2.5,7.1-2.5c1.2-0.1,2.4,0.1,3.5,0.6s2.1,1.1,2.9,2  c0.7,0.9,1.3,2,1.6,3.1C99.8,77.6,99.8,78.7,99.6,79.9z M112.9,61.7h-9.6c-0.4,0-0.8,0.1-1.1,0.4c-0.3,0.3-0.5,0.6-0.6,1l-0.4,2.6  l-0.7-0.9c-1.5-1.4-3.2-2.6-5.2-3.2c-2-0.7-4.1-0.9-6.1-0.7c-5.3,0.1-10.4,2.1-14.3,5.5c-3.9,3.4-6.5,8.1-7.1,13.2  c-0.5,2.5-0.4,5.1,0.2,7.5c0.6,2.5,1.8,4.8,3.4,6.8c1.5,1.6,3.4,2.9,5.5,3.7c2.1,0.8,4.4,1.2,6.6,1c2.5,0,4.9-0.4,7.2-1.4  c2.3-0.9,4.4-2.3,6.1-4l-0.4,2.6c0,0.2,0,0.5,0,0.7c0.1,0.2,0.2,0.4,0.3,0.6c0.2,0.2,0.4,0.3,0.6,0.4c0.2,0.1,0.5,0.1,0.7,0.1h8.7  c0.7,0,1.3-0.2,1.8-0.6c0.5-0.4,0.8-1,0.9-1.6l5.2-31.9c0-0.2,0-0.5,0-0.7c-0.1-0.2-0.2-0.4-0.3-0.6c-0.2-0.2-0.4-0.3-0.6-0.4  C113.4,61.8,113.2,61.7,112.9,61.7"></path>	<path class="st0" d="M164.8,60.8H155c-0.5,0-0.9,0.1-1.3,0.3c-0.4,0.2-0.8,0.5-1,0.8l-13.5,18.5l-5.7-17.8c-0.2-0.5-0.5-1-1-1.4  c-0.5-0.3-1.1-0.5-1.7-0.5H121c-0.3,0-0.5,0.1-0.8,0.2c-0.2,0.1-0.4,0.3-0.6,0.5c-0.2,0.2-0.3,0.4-0.3,0.7c0,0.2,0,0.5,0.1,0.7  l10.8,29.5l-10.2,13.3c-0.2,0.2-0.3,0.5-0.3,0.8c0,0.3,0,0.6,0.2,0.8s0.4,0.5,0.6,0.6c0.3,0.2,0.6,0.2,0.9,0.2h9.8  c0.5,0,0.9-0.1,1.3-0.3c0.4-0.2,0.8-0.5,1-0.8l32.6-43.8c0.2-0.2,0.3-0.5,0.3-0.8c0-0.3,0-0.6-0.2-0.8c-0.1-0.3-0.4-0.5-0.6-0.6  C165.4,60.9,165.1,60.8,164.8,60.8"></path>	<path class="st1" d="M197.1,63.4c-1.1,6.7-6.4,6.7-11.6,6.7h-2.9l2.1-12.6c0.1-0.4,0.3-0.7,0.5-0.9c0.3-0.2,0.7-0.4,1.1-0.4h1.3  c3.5,0,6.8,0,8.5,1.9c0.5,0.8,0.9,1.6,1.1,2.5C197.4,61.6,197.3,62.6,197.1,63.4 M194.8,45.9h-19.5c-0.6,0-1.3,0.2-1.8,0.6  c-0.5,0.4-0.8,1-0.9,1.6l-7.9,48.1c0,0.2,0,0.5,0,0.7c0.1,0.2,0.2,0.4,0.3,0.6c0.2,0.2,0.3,0.3,0.6,0.4c0.2,0.1,0.4,0.1,0.7,0.1h10  c0.5,0,0.9-0.2,1.2-0.4c0.3-0.3,0.6-0.7,0.6-1.1l2.2-13.6c0.1-0.6,0.4-1.2,0.9-1.6c0.5-0.4,1.1-0.6,1.8-0.6h6.2  c12.8,0,20.2-6,22.2-17.8c0.5-2.1,0.6-4.2,0.2-6.3c-0.4-2.1-1.3-4.1-2.7-5.8c-1.9-1.7-4.1-3.1-6.6-3.9  C200,46,197.4,45.7,194.8,45.9"></path>	<path class="st1" d="M241,79.9c-0.4,2.5-1.7,4.8-3.7,6.5c-2,1.6-4.5,2.5-7.2,2.5c-1.2,0.1-2.4,0-3.5-0.5c-1.1-0.4-2.1-1.1-2.9-2  c-0.8-0.9-1.3-2-1.6-3.1c-0.3-1.1-0.2-2.3,0.1-3.5c0.4-2.5,1.7-4.8,3.6-6.5c2-1.7,4.5-2.5,7.1-2.5c1.2-0.1,2.4,0.1,3.5,0.6  c1.1,0.4,2.1,1.1,2.9,2c0.8,0.9,1.3,2,1.6,3.1C241.3,77.6,241.3,78.7,241,79.9z M254.4,61.7h-9.6c-0.4,0-0.8,0.1-1.1,0.4  c-0.3,0.3-0.5,0.6-0.6,1l-0.4,2.6l-0.7-0.9c-1.5-1.4-3.2-2.6-5.2-3.2c-2-0.7-4.1-0.9-6.1-0.7c-5.3,0.1-10.4,2.1-14.3,5.5  c-3.9,3.4-6.5,8.1-7.1,13.2c-0.5,2.5-0.4,5.1,0.2,7.5c0.6,2.5,1.8,4.8,3.4,6.8c1.5,1.6,3.4,2.9,5.5,3.7c2.1,0.8,4.4,1.2,6.6,1  c2.5,0,4.9-0.4,7.2-1.4c2.3-0.9,4.4-2.3,6.1-4l-0.4,2.6c0,0.2,0,0.5,0,0.7c0.1,0.2,0.2,0.4,0.3,0.6c0.2,0.2,0.4,0.3,0.6,0.4  c0.2,0.1,0.5,0.1,0.7,0.1h8.7c0.7,0,1.3-0.2,1.8-0.7c0.5-0.4,0.8-1,0.9-1.6l5.2-31.9c0-0.2,0-0.5,0-0.7c-0.1-0.2-0.2-0.4-0.3-0.6  c-0.2-0.2-0.4-0.3-0.6-0.4C254.9,61.8,254.7,61.7,254.4,61.7"></path>	<path class="st1" d="M263.6,46.1l-7.5,49c0,0.2,0,0.5,0,0.7c0.1,0.2,0.2,0.4,0.3,0.6c0.1,0.2,0.3,0.3,0.5,0.4  c0.2,0.1,0.4,0.1,0.6,0.1h7.5c0.6,0,1.2-0.2,1.6-0.6c0.5-0.4,0.8-1,0.9-1.6l7.3-48.1c0-0.2,0-0.5,0-0.7c-0.1-0.2-0.2-0.4-0.3-0.6  c-0.1-0.2-0.3-0.3-0.5-0.4c-0.2-0.1-0.4-0.1-0.6-0.1h-8.4c-0.4,0-0.7,0.1-1,0.4C263.9,45.4,263.7,45.8,263.6,46.1"></path></g></svg>