<svg xmlns="http://www.w3.org/2000/svg" xmlns:xlink="http://www.w3.org/1999/xlink" x="0px" y="0px" viewBox="0 0 300 150" style="enable-background:new 0 0 300 150;" xml:space="preserve"><style type="text/css">	.st0{fill:#2478BC;}</style><polygon class="st0" points="223.8,42.5 244.6,39 244.6,114.6 223.8,114.6 "></polygon><polygon class="st0" points="254.2,42.5 254.2,114.6 275,114.6 275,39 "></polygon><rect x="194.2" y="59.3" class="st0" width="20.8" height="55.2"></rect><path class="st0" d="M56.6,67.1c-2.6-0.2-8.7-0.5-8.7-5.7c0-6.3,8.8-6.3,12.1-6.3c6.3,0.3,12.6,1.3,18.6,3.1c0,0,3,1,5.5,2l0.2,0.1 V43.2L84,43.1c-8.7-3-18-4.3-27.3-4.1C33.3,39,25,52,25,63c0,6.4,2.9,21.4,29.8,23.1c2.3,0.1,8.3,0.5,8.3,5.8c0,4.4-4.9,7-13.3,7 c-8-0.1-15.9-1.5-23.4-4.3v17.6c9.1,2.1,18.4,3.1,27.8,3c22.9,0,33.2-12.2,33.2-24.3C87.4,77.3,75.9,68.4,56.6,67.1"></path><path class="st0" d="M182.4,58.5c-19.2,0.6-29,8.7-29,25v31.1h21V89.2c0-9.7,1.4-13.9,13.5-14.3V58.8 C186.2,58.5,184.3,58.4,182.4,58.5"></path><path class="st0" d="M126,59.2c-2.8,7-6.8,13.5-11.9,19.2V39l-21.5,4v71.5h21.5V92.5c4.3,6.9,7.4,14.3,9.3,22.1h25.7 c-3.6-9.9-8.1-19.4-13.7-28.5c6.6-8.1,11.7-17.2,15.1-26.9L126,59.2z"></path><path class="st0" d="M204.6,54c2,0,4-0.6,5.7-1.6c1.7-1.1,3-2.6,3.8-4.4c0.8-1.8,1-3.7,0.6-5.6c-0.4-1.9-1.4-3.6-2.8-5 c-1.4-1.4-3.3-2.3-5.3-2.7c-2-0.4-4.1-0.2-5.9,0.6c-1.9,0.7-3.5,2-4.6,3.6c-1.1,1.6-1.7,3.5-1.7,5.4c0,2.6,1.1,5,3,6.9 C199.3,53,201.9,54,204.6,54z"></path></svg>