<svg xmlns="http://www.w3.org/2000/svg" xmlns:xlink="http://www.w3.org/1999/xlink" x="0px" y="0px" viewBox="0 0 300 150" style="enable-background:new 0 0 300 150;" xml:space="preserve"><style type="text/css">	.st0{fill:#FFFFFF;}</style><path class="st0" d="M148.8,34.6l-16.7,81h-20.2l16.7-81H148.8z M233.8,86.9l10.6-30.4l6.1,30.4L233.8,86.9z M256.3,115.6H275 l-16.3-81h-17.2c-1.8,0-3.6,0.5-5.2,1.6c-1.5,1.1-2.7,2.6-3.4,4.3l-30.3,75.1h21.2l4.2-12.1h25.9L256.3,115.6 M203.6,89.2 c0.1-21.4-28.5-22.6-28.3-32.1c0.1-2.9,2.7-6,8.6-6.8c6.8-0.7,13.7,0.6,19.9,3.6l3.5-17.2c-6-2.3-12.4-3.6-18.9-3.6 c-20,0-34,11-34.1,26.8c-0.1,11.7,10,18.2,17.7,22.1c7.9,4,10.5,6.5,10.5,10.1c-0.1,5.4-6.3,7.8-12.1,7.9 c-7.2,0.2-14.4-1.6-20.7-5.1l-3.7,17.8c7.2,2.9,14.8,4.3,22.4,4.3C189.6,116.9,203.5,106,203.6,89.2 M119.9,34.6l-32.7,81H65.8 L49.7,51c-0.1-1.5-0.7-3-1.5-4.2c-0.8-1.2-2-2.2-3.3-2.9c-6.3-3.1-13-5.5-19.9-6.9l0.5-2.3h34.4c2.2,0,4.4,0.8,6.1,2.3 c1.7,1.5,2.8,3.6,3.2,5.9l8.5,46.9l21-55.1H119.9z"></path></svg>